<mxfile host="Electron" modified="2023-10-23T22:07:54.689Z" agent="Mozilla/5.0 (Macintosh; Intel Mac OS X 10_15_7) AppleWebKit/537.36 (KHTML, like Gecko) draw.io/22.0.3 Chrome/114.0.5735.289 Electron/25.8.4 Safari/537.36" etag="tUfWUKICQTlMaERRZohw" version="22.0.3" type="device" pages="4">
  <diagram id="W7zeSVAuiYal1b0tkzLF" name="Level1">
    <mxGraphModel dx="1026" dy="1912" grid="0" gridSize="10" guides="1" tooltips="1" connect="1" arrows="1" fold="1" page="1" pageScale="1" pageWidth="827" pageHeight="1169" math="0" shadow="0">
      <root>
        <mxCell id="0" />
        <mxCell id="1" parent="0" />
        <mxCell id="rMhYlK4gT5_92AhPAWjt-1" value="" style="group" parent="1" vertex="1" connectable="0">
          <mxGeometry x="121" y="-788" width="585" height="408" as="geometry" />
        </mxCell>
        <object placeholders="1" c4Name="User" c4Type="Person" c4Description="A user of the app" label="&lt;font style=&quot;font-size: 16px&quot;&gt;&lt;b&gt;%c4Name%&lt;/b&gt;&lt;/font&gt;&lt;div&gt;[%c4Type%]&lt;/div&gt;&lt;br&gt;&lt;div&gt;&lt;font style=&quot;font-size: 11px&quot;&gt;&lt;font color=&quot;#cccccc&quot;&gt;%c4Description%&lt;/font&gt;&lt;/div&gt;" id="RWp6IXZDEwHyhU9-a6Pa-1">
          <mxCell style="html=1;fontSize=12;dashed=0;whiteSpace=wrap;fillColor=default;strokeColor=default;fontColor=default;shape=mxgraph.c4.person2;align=center;metaEdit=1;points=[[0.5,0,0],[1,0.5,0],[1,0.75,0],[0.75,1,0],[0.5,1,0],[0.25,1,0],[0,0.75,0],[0,0.5,0]];resizable=0;rounded=0;labelBackgroundColor=none;fillStyle=auto;" parent="rMhYlK4gT5_92AhPAWjt-1" vertex="1">
            <mxGeometry x="20" width="200" height="180" as="geometry" />
          </mxCell>
        </object>
        <object placeholders="1" c4Name="QuirkedUpSoftware" c4Type="Software System" c4Description="" label="&lt;font style=&quot;font-size: 16px&quot;&gt;&lt;b&gt;%c4Name%&lt;/b&gt;&lt;/font&gt;&lt;div&gt;[%c4Type%]&lt;/div&gt;&lt;br&gt;&lt;div&gt;&lt;font style=&quot;font-size: 11px&quot;&gt;&lt;font color=&quot;#cccccc&quot;&gt;%c4Description%&lt;/font&gt;&lt;/div&gt;" link="data:page/id,7n5MLVSFtTWDjYzZza0r" id="FuFAVnQ8xDOjgo14CRiz-1">
          <mxCell style="rounded=1;whiteSpace=wrap;html=1;labelBackgroundColor=none;align=center;arcSize=10;metaEdit=1;resizable=0;points=[[0.25,0,0],[0.5,0,0],[0.75,0,0],[1,0.25,0],[1,0.5,0],[1,0.75,0],[0.75,1,0],[0.5,1,0],[0.25,1,0],[0,0.75,0],[0,0.5,0],[0,0.25,0]];" parent="rMhYlK4gT5_92AhPAWjt-1" vertex="1">
            <mxGeometry y="288" width="240" height="120" as="geometry" />
          </mxCell>
        </object>
        <object placeholders="1" c4Name="VM - DEI" c4Type="Software System" c4Description="" label="&lt;font style=&quot;font-size: 16px&quot;&gt;&lt;b&gt;%c4Name%&lt;/b&gt;&lt;/font&gt;&lt;div&gt;[%c4Type%]&lt;/div&gt;&lt;br&gt;&lt;div&gt;&lt;font style=&quot;font-size: 11px&quot;&gt;&lt;font color=&quot;#cccccc&quot;&gt;%c4Description%&lt;/font&gt;&lt;/div&gt;" id="FuFAVnQ8xDOjgo14CRiz-2">
          <mxCell style="rounded=1;whiteSpace=wrap;html=1;labelBackgroundColor=none;align=center;arcSize=10;metaEdit=1;resizable=0;points=[[0.25,0,0],[0.5,0,0],[0.75,0,0],[1,0.25,0],[1,0.5,0],[1,0.75,0],[0.75,1,0],[0.5,1,0],[0.25,1,0],[0,0.75,0],[0,0.5,0],[0,0.25,0]];fillColor=default;" parent="rMhYlK4gT5_92AhPAWjt-1" vertex="1">
            <mxGeometry x="345" y="288" width="240" height="120" as="geometry" />
          </mxCell>
        </object>
        <mxCell id="CQlgcReMnPMl4ZQedh1b-1" value="Hosted" style="shape=flexArrow;endArrow=classic;startArrow=classic;html=1;rounded=0;width=15;startSize=7.09;entryX=1;entryY=0.5;entryDx=0;entryDy=0;entryPerimeter=0;exitX=0;exitY=0.5;exitDx=0;exitDy=0;exitPerimeter=0;" parent="rMhYlK4gT5_92AhPAWjt-1" source="FuFAVnQ8xDOjgo14CRiz-2" target="FuFAVnQ8xDOjgo14CRiz-1" edge="1">
          <mxGeometry width="100" height="100" relative="1" as="geometry">
            <mxPoint x="345" y="347.5" as="sourcePoint" />
            <mxPoint x="240" y="347.5" as="targetPoint" />
            <Array as="points" />
          </mxGeometry>
        </mxCell>
        <mxCell id="CQlgcReMnPMl4ZQedh1b-2" value="Interage com" style="shape=flexArrow;endArrow=classic;startArrow=classic;html=1;rounded=0;width=15;startSize=7.09;entryX=0.5;entryY=1;entryDx=0;entryDy=0;entryPerimeter=0;exitX=0.5;exitY=0;exitDx=0;exitDy=0;exitPerimeter=0;" parent="rMhYlK4gT5_92AhPAWjt-1" source="FuFAVnQ8xDOjgo14CRiz-1" target="RWp6IXZDEwHyhU9-a6Pa-1" edge="1">
          <mxGeometry width="100" height="100" relative="1" as="geometry">
            <mxPoint x="119.5" y="286" as="sourcePoint" />
            <mxPoint x="119.5" y="180" as="targetPoint" />
          </mxGeometry>
        </mxCell>
      </root>
    </mxGraphModel>
  </diagram>
  <diagram id="7n5MLVSFtTWDjYzZza0r" name="Level2">
    <mxGraphModel dx="1026" dy="1912" grid="0" gridSize="10" guides="1" tooltips="1" connect="1" arrows="1" fold="1" page="1" pageScale="1" pageWidth="827" pageHeight="1169" background="none" math="0" shadow="0">
      <root>
        <mxCell id="0" />
        <mxCell id="1" parent="0" />
        <mxCell id="UjCgYjRvqK1ReB0q6Gmu-1" value="" style="group" parent="1" vertex="1" connectable="0">
          <mxGeometry x="215" y="-1045" width="397" height="921" as="geometry" />
        </mxCell>
        <object placeholders="1" c4Name="Back-End" c4Type="container" c4Technology="Django" c4Description="API Application" label="&lt;font style=&quot;font-size: 16px&quot;&gt;&lt;b&gt;%c4Name%&lt;/b&gt;&lt;/font&gt;&lt;div&gt;[%c4Type%: %c4Technology%]&lt;/div&gt;&lt;br&gt;&lt;div&gt;&lt;font style=&quot;font-size: 11px&quot;&gt;%c4Description%&lt;/font&gt;&lt;/div&gt;" link="data:page/id,qyooKgHwR9nkf5I0anN5" id="TLNvnFeLq7j_aMXm4joQ-1">
          <mxCell style="rounded=0;whiteSpace=wrap;html=1;labelBackgroundColor=none;fillColor=default;fontColor=default;align=center;arcSize=6;strokeColor=default;metaEdit=1;resizable=0;points=[[0.25,0,0],[0.5,0,0],[0.75,0,0],[1,0.25,0],[1,0.5,0],[1,0.75,0],[0.75,1,0],[0.5,1,0],[0.25,1,0],[0,0.75,0],[0,0.5,0],[0,0.25,0]];fillStyle=auto;" parent="UjCgYjRvqK1ReB0q6Gmu-1" vertex="1">
            <mxGeometry x="35" y="512" width="240" height="120" as="geometry" />
          </mxCell>
        </object>
        <object placeholders="1" c4Name="Front-End" c4Type="container" c4Technology="JS, HTML/CSS" c4Description="" label="&lt;font style=&quot;font-size: 12px;&quot;&gt;&lt;b style=&quot;font-size: 12px;&quot;&gt;%c4Name%&lt;/b&gt;&lt;/font&gt;&lt;div style=&quot;font-size: 12px;&quot;&gt;[%c4Type%: %c4Technology%]&lt;/div&gt;&lt;br style=&quot;font-size: 12px;&quot;&gt;&lt;div style=&quot;font-size: 12px;&quot;&gt;&lt;font style=&quot;font-size: 12px;&quot;&gt;%c4Description%&lt;/font&gt;&lt;/div&gt;" link="data:page/id,bSWXkAvd_tsCFk12IrZO" id="TLNvnFeLq7j_aMXm4joQ-2">
          <mxCell style="rounded=0;whiteSpace=wrap;html=1;labelBackgroundColor=none;fillColor=default;fontColor=default;align=center;arcSize=6;strokeColor=default;metaEdit=1;resizable=0;shape=mxgraph.c4.webBrowserContainer2;boundedLbl=1;strokeColor2=#0E7DAD;points=[[0.5,0,0],[1,0.25,0],[1,0.5,0],[1,0.75,0],[0.5,1,0],[0,0.75,0],[0,0.5,0],[0,0.25,0]];verticalAlign=middle;fontSize=12;fillStyle=auto;spacingTop=19;noLabel=0;" parent="UjCgYjRvqK1ReB0q6Gmu-1" vertex="1">
            <mxGeometry x="35" y="286" width="240" height="120" as="geometry" />
          </mxCell>
        </object>
        <object placeholders="1" c4Name="DataBase" c4Type="container" c4Technology="SQLite" c4Description="" label="&lt;font style=&quot;font-size: 16px&quot;&gt;&lt;b&gt;%c4Name%&lt;/b&gt;&lt;/font&gt;&lt;div&gt;[%c4Type%: %c4Technology%]&lt;/div&gt;&lt;br&gt;&lt;div&gt;&lt;font style=&quot;font-size: 11px&quot;&gt;%c4Description%&lt;/font&gt;&lt;/div&gt;" id="TLNvnFeLq7j_aMXm4joQ-3">
          <mxCell style="rounded=0;whiteSpace=wrap;html=1;labelBackgroundColor=none;fillColor=default;fontColor=default;align=center;arcSize=6;strokeColor=default;metaEdit=1;resizable=0;points=[[0.25,0,0],[0.5,0,0],[0.75,0,0],[1,0.25,0],[1,0.5,0],[1,0.75,0],[0.75,1,0],[0.5,1,0],[0.25,1,0],[0,0.75,0],[0,0.5,0],[0,0.25,0]];fillStyle=auto;" parent="UjCgYjRvqK1ReB0q6Gmu-1" vertex="1">
            <mxGeometry x="35" y="738" width="240" height="120" as="geometry" />
          </mxCell>
        </object>
        <mxCell id="jEh7TLmDipMY9ElzDevd-4" value="ORM (Django)" style="shape=flexArrow;endArrow=classic;startArrow=classic;html=1;rounded=0;width=15;startSize=7.09;entryX=0.5;entryY=1;entryDx=0;entryDy=0;entryPerimeter=0;exitX=0.5;exitY=0;exitDx=0;exitDy=0;exitPerimeter=0;" parent="UjCgYjRvqK1ReB0q6Gmu-1" source="TLNvnFeLq7j_aMXm4joQ-3" target="TLNvnFeLq7j_aMXm4joQ-1" edge="1">
          <mxGeometry width="100" height="100" relative="1" as="geometry">
            <mxPoint x="163" y="731" as="sourcePoint" />
            <mxPoint x="163" y="625" as="targetPoint" />
          </mxGeometry>
        </mxCell>
        <mxCell id="jEh7TLmDipMY9ElzDevd-5" value="HTTP" style="shape=flexArrow;endArrow=classic;startArrow=classic;html=1;rounded=0;width=15;startSize=7.09;entryX=0.5;entryY=1;entryDx=0;entryDy=0;entryPerimeter=0;exitX=0.5;exitY=0;exitDx=0;exitDy=0;exitPerimeter=0;" parent="UjCgYjRvqK1ReB0q6Gmu-1" source="TLNvnFeLq7j_aMXm4joQ-1" target="TLNvnFeLq7j_aMXm4joQ-2" edge="1">
          <mxGeometry width="100" height="100" relative="1" as="geometry">
            <mxPoint x="154.5" y="514" as="sourcePoint" />
            <mxPoint x="154.5" y="408" as="targetPoint" />
          </mxGeometry>
        </mxCell>
        <object placeholders="1" c4Name="User" c4Type="Person" c4Description="A user of the app" label="&lt;font style=&quot;font-size: 16px&quot;&gt;&lt;b&gt;%c4Name%&lt;/b&gt;&lt;/font&gt;&lt;div&gt;[%c4Type%]&lt;/div&gt;&lt;br&gt;&lt;div&gt;&lt;font style=&quot;font-size: 11px&quot;&gt;&lt;font color=&quot;#cccccc&quot;&gt;%c4Description%&lt;/font&gt;&lt;/div&gt;" id="jEh7TLmDipMY9ElzDevd-6">
          <mxCell style="html=1;fontSize=12;dashed=0;whiteSpace=wrap;fillColor=default;strokeColor=default;fontColor=default;shape=mxgraph.c4.person2;align=center;metaEdit=1;points=[[0.5,0,0],[1,0.5,0],[1,0.75,0],[0.75,1,0],[0.5,1,0],[0.25,1,0],[0,0.75,0],[0,0.5,0]];resizable=0;rounded=0;labelBackgroundColor=none;fillStyle=auto;" parent="UjCgYjRvqK1ReB0q6Gmu-1" vertex="1">
            <mxGeometry x="55" width="200" height="180" as="geometry" />
          </mxCell>
        </object>
        <mxCell id="jEh7TLmDipMY9ElzDevd-7" value="" style="shape=flexArrow;endArrow=classic;startArrow=classic;html=1;rounded=0;width=15;startSize=7.09;entryX=0.5;entryY=1;entryDx=0;entryDy=0;entryPerimeter=0;exitX=0.5;exitY=0;exitDx=0;exitDy=0;exitPerimeter=0;" parent="UjCgYjRvqK1ReB0q6Gmu-1" source="TLNvnFeLq7j_aMXm4joQ-2" target="jEh7TLmDipMY9ElzDevd-6" edge="1">
          <mxGeometry width="100" height="100" relative="1" as="geometry">
            <mxPoint x="157" y="284" as="sourcePoint" />
            <mxPoint x="157" y="178" as="targetPoint" />
          </mxGeometry>
        </mxCell>
        <mxCell id="gnmNqrGB0O0TrjazZ2YZ-1" value="Interage com" style="edgeLabel;html=1;align=center;verticalAlign=middle;resizable=0;points=[];" parent="jEh7TLmDipMY9ElzDevd-7" vertex="1" connectable="0">
          <mxGeometry x="0.0849" relative="1" as="geometry">
            <mxPoint as="offset" />
          </mxGeometry>
        </mxCell>
        <mxCell id="jEh7TLmDipMY9ElzDevd-9" value="" style="shape=crossbar;whiteSpace=wrap;html=1;rounded=1;direction=south;" parent="UjCgYjRvqK1ReB0q6Gmu-1" vertex="1">
          <mxGeometry x="340" y="282" width="34" height="576" as="geometry" />
        </mxCell>
        <mxCell id="jEh7TLmDipMY9ElzDevd-12" value="VM - DEI" style="whiteSpace=wrap;html=1;" parent="UjCgYjRvqK1ReB0q6Gmu-1" vertex="1">
          <mxGeometry x="317" y="552" width="80" height="40" as="geometry" />
        </mxCell>
        <object placeholders="1" c4Name="QuirkedUpSoftware" c4Type="SystemScopeBoundary" c4Application="Software System" label="&lt;font style=&quot;font-size: 16px&quot;&gt;&lt;b&gt;&lt;div style=&quot;text-align: left&quot;&gt;%c4Name%&lt;/div&gt;&lt;/b&gt;&lt;/font&gt;&lt;div style=&quot;text-align: left&quot;&gt;[%c4Application%]&lt;/div&gt;" id="gnmNqrGB0O0TrjazZ2YZ-2">
          <mxCell style="rounded=1;fontSize=11;whiteSpace=wrap;html=1;dashed=1;arcSize=20;fillColor=none;strokeColor=#666666;fontColor=#999999;labelBackgroundColor=none;align=left;verticalAlign=bottom;labelBorderColor=none;spacingTop=0;spacing=10;dashPattern=8 4;metaEdit=1;rotatable=0;perimeter=rectanglePerimeter;labelPadding=0;allowArrows=0;connectable=0;expand=0;recursiveResize=0;editable=1;pointerEvents=0;absoluteArcSize=1;points=[[0.25,0,0],[0.5,0,0],[0.75,0,0],[1,0.25,0],[1,0.5,0],[1,0.75,0],[0.75,1,0],[0.5,1,0],[0.25,1,0],[0,0.75,0],[0,0.5,0],[0,0.25,0]];" parent="UjCgYjRvqK1ReB0q6Gmu-1" vertex="1">
            <mxGeometry y="252" width="302" height="669" as="geometry" />
          </mxCell>
        </object>
      </root>
    </mxGraphModel>
  </diagram>
  <diagram id="qyooKgHwR9nkf5I0anN5" name="BackEnd">
    <mxGraphModel dx="1026" dy="743" grid="0" gridSize="10" guides="1" tooltips="1" connect="1" arrows="1" fold="1" page="1" pageScale="1" pageWidth="2336" pageHeight="1654" background="none" math="0" shadow="0">
      <root>
        <mxCell id="0" />
        <mxCell id="1" parent="0" />
        <mxCell id="N8XQ37z7VI6CD78aaAB8-1" value="" style="group" parent="1" vertex="1" connectable="0">
          <mxGeometry x="269" y="201" width="1798" height="1252" as="geometry" />
        </mxCell>
        <object c4Type="Autenticação" c4Container="Container" c4Technology="JavaScript" c4Description="Login e Registo" label="&lt;font style=&quot;font-size: 16px&quot;&gt;&lt;b&gt;%c4Type%&lt;/b&gt;&lt;/font&gt;&lt;div&gt;[%c4Container%:&amp;nbsp;%c4Technology%]&lt;/div&gt;&lt;br&gt;&lt;div&gt;&lt;font style=&quot;font-size: 11px&quot;&gt;&lt;font color=&quot;#E6E6E6&quot;&gt;%c4Description%&lt;/font&gt;&lt;/div&gt;" placeholders="1" id="I7LqDZJ3CJZZwzFoDigh-1">
          <mxCell style="shape=mxgraph.c4.webBrowserContainer2;whiteSpace=wrap;html=1;boundedLbl=1;rounded=0;labelBackgroundColor=none;strokeColor=default;strokeColor2=#0E7DAD;fontSize=12;align=center;metaEdit=1;points=[[0.5,0,0],[1,0.25,0],[1,0.5,0],[1,0.75,0],[0.5,1,0],[0,0.75,0],[0,0.5,0],[0,0.25,0]];resizable=0;rotation=0;fillColor=default;fillStyle=auto;gradientColor=none;strokeWidth=1;shadow=0;" parent="N8XQ37z7VI6CD78aaAB8-1" vertex="1">
            <mxGeometry x="489.62911249999996" width="240" height="160" as="geometry" />
          </mxCell>
        </object>
        <object placeholders="1" c4Type="Admin" c4Container="Container" c4Technology="JavaScript" c4Description="Import/Export" label="&lt;font style=&quot;font-size: 16px&quot;&gt;&lt;b&gt;%c4Type%&lt;/b&gt;&lt;/font&gt;&lt;div&gt;[%c4Container%:&amp;nbsp;%c4Technology%]&lt;/div&gt;&lt;br&gt;&lt;div&gt;&lt;font style=&quot;font-size: 11px&quot;&gt;&lt;font color=&quot;#E6E6E6&quot;&gt;%c4Description%&lt;/font&gt;&lt;/div&gt;" id="PHthmckFnBj6GMdcYPBt-1">
          <mxCell style="shape=mxgraph.c4.webBrowserContainer2;whiteSpace=wrap;html=1;boundedLbl=1;rounded=0;labelBackgroundColor=none;strokeColor=default;strokeColor2=#0E7DAD;fontSize=12;align=center;metaEdit=1;points=[[0.5,0,0],[1,0.25,0],[1,0.5,0],[1,0.75,0],[0.5,1,0],[0,0.75,0],[0,0.5,0],[0,0.25,0]];resizable=0;fillStyle=auto;" parent="N8XQ37z7VI6CD78aaAB8-1" vertex="1">
            <mxGeometry x="1528.3" y="891.063063063063" width="240" height="160" as="geometry" />
          </mxCell>
        </object>
        <object placeholders="1" c4Type="CreateQuiz" c4Container="Container" c4Technology="JavaScript" c4Description="Criação de questões" label="&lt;font style=&quot;font-size: 16px&quot;&gt;&lt;b&gt;%c4Type%&lt;/b&gt;&lt;/font&gt;&lt;div&gt;[%c4Container%:&amp;nbsp;%c4Technology%]&lt;/div&gt;&lt;br&gt;&lt;div&gt;&lt;font style=&quot;font-size: 11px&quot;&gt;&lt;font color=&quot;#E6E6E6&quot;&gt;%c4Description%&lt;/font&gt;&lt;/div&gt;" id="yzRLdxZ8VSo4Qz4Puve0-1">
          <mxCell style="shape=mxgraph.c4.webBrowserContainer2;whiteSpace=wrap;html=1;boundedLbl=1;rounded=0;labelBackgroundColor=none;strokeColor=default;strokeColor2=#0E7DAD;fontSize=12;align=center;metaEdit=1;points=[[0.5,0,0],[1,0.25,0],[1,0.5,0],[1,0.75,0],[0.5,1,0],[0,0.75,0],[0,0.5,0],[0,0.25,0]];resizable=0;fillStyle=auto;" parent="N8XQ37z7VI6CD78aaAB8-1" vertex="1">
            <mxGeometry x="22.475" width="240" height="160" as="geometry" />
          </mxCell>
        </object>
        <object placeholders="1" c4Type="ReviewQuiz" c4Container="Container" c4Technology="JavaScript" c4Description="Validação de questões" label="&lt;font style=&quot;font-size: 16px&quot;&gt;&lt;b&gt;%c4Type%&lt;/b&gt;&lt;/font&gt;&lt;div&gt;[%c4Container%:&amp;nbsp;%c4Technology%]&lt;/div&gt;&lt;br&gt;&lt;div&gt;&lt;font style=&quot;font-size: 11px&quot;&gt;&lt;font color=&quot;#E6E6E6&quot;&gt;%c4Description%&lt;/font&gt;&lt;/div&gt;" id="4HwgXqDOS0TsbnJ4wdgq-1">
          <mxCell style="shape=mxgraph.c4.webBrowserContainer2;whiteSpace=wrap;html=1;boundedLbl=1;rounded=0;labelBackgroundColor=none;strokeColor=default;strokeColor2=#0E7DAD;fontSize=12;align=center;metaEdit=1;points=[[0.5,0,0],[1,0.25,0],[1,0.5,0],[1,0.75,0],[0.5,1,0],[0,0.75,0],[0,0.5,0],[0,0.25,0]];resizable=0;fillStyle=auto;" parent="N8XQ37z7VI6CD78aaAB8-1" vertex="1">
            <mxGeometry x="1528.3" y="665.4774774774775" width="240" height="160" as="geometry" />
          </mxCell>
        </object>
        <object placeholders="1" c4Type="CreateTest" c4Container="Container" c4Technology="JavaScript" c4Description="Criação de um teste" label="&lt;font style=&quot;font-size: 16px&quot;&gt;&lt;b&gt;%c4Type%&lt;/b&gt;&lt;/font&gt;&lt;div&gt;[%c4Container%:&amp;nbsp;%c4Technology%]&lt;/div&gt;&lt;br&gt;&lt;div&gt;&lt;font style=&quot;font-size: 11px&quot;&gt;&lt;font color=&quot;#E6E6E6&quot;&gt;%c4Description%&lt;/font&gt;&lt;/div&gt;" id="y0l5qcVMaJ8DRe2l7gMj-1">
          <mxCell style="shape=mxgraph.c4.webBrowserContainer2;whiteSpace=wrap;html=1;boundedLbl=1;rounded=0;labelBackgroundColor=none;strokeColor=default;strokeColor2=#0E7DAD;fontSize=12;align=center;metaEdit=1;points=[[0.5,0,0],[1,0.25,0],[1,0.5,0],[1,0.75,0],[0.5,1,0],[0,0.75,0],[0,0.5,0],[0,0.25,0]];resizable=0;fillStyle=auto;" parent="N8XQ37z7VI6CD78aaAB8-1" vertex="1">
            <mxGeometry x="921.475" width="240" height="160" as="geometry" />
          </mxCell>
        </object>
        <object placeholders="1" c4Type="SolveTest" c4Container="Container" c4Technology="JavaScript" c4Description="Resolução de um teste" label="&lt;font style=&quot;font-size: 16px&quot;&gt;&lt;b&gt;%c4Type%&lt;/b&gt;&lt;/font&gt;&lt;div&gt;[%c4Container%:&amp;nbsp;%c4Technology%]&lt;/div&gt;&lt;br&gt;&lt;div&gt;&lt;font style=&quot;font-size: 11px&quot;&gt;&lt;font color=&quot;#E6E6E6&quot;&gt;%c4Description%&lt;/font&gt;&lt;/div&gt;" id="IMZYx-yUG_YBl6SAn0AE-1">
          <mxCell style="shape=mxgraph.c4.webBrowserContainer2;whiteSpace=wrap;html=1;boundedLbl=1;rounded=0;labelBackgroundColor=none;strokeColor=default;strokeColor2=#0E7DAD;fontSize=12;align=center;metaEdit=1;points=[[0.5,0,0],[1,0.25,0],[1,0.5,0],[1,0.75,0],[0.5,1,0],[0,0.75,0],[0,0.5,0],[0,0.25,0]];resizable=0;fillStyle=auto;" parent="N8XQ37z7VI6CD78aaAB8-1" vertex="1">
            <mxGeometry x="1528.3" y="214.3063063063063" width="240" height="160" as="geometry" />
          </mxCell>
        </object>
        <object placeholders="1" c4Type="Profile" c4Container="Container" c4Technology="JavaScript" c4Description="Consulta do perfil de um user" label="&lt;font style=&quot;font-size: 16px&quot;&gt;&lt;b&gt;%c4Type%&lt;/b&gt;&lt;/font&gt;&lt;div&gt;[%c4Container%:&amp;nbsp;%c4Technology%]&lt;/div&gt;&lt;br&gt;&lt;div&gt;&lt;font style=&quot;font-size: 11px&quot;&gt;&lt;font color=&quot;#E6E6E6&quot;&gt;%c4Description%&lt;/font&gt;&lt;/div&gt;" id="sPyPz_i8Z7CjeB8h4v_E-1">
          <mxCell style="shape=mxgraph.c4.webBrowserContainer2;whiteSpace=wrap;html=1;boundedLbl=1;rounded=0;labelBackgroundColor=none;strokeColor=default;strokeColor2=#0E7DAD;fontSize=12;align=center;metaEdit=1;points=[[0.5,0,0],[1,0.25,0],[1,0.5,0],[1,0.75,0],[0.5,1,0],[0,0.75,0],[0,0.5,0],[0,0.25,0]];resizable=0;fillStyle=auto;" parent="N8XQ37z7VI6CD78aaAB8-1" vertex="1">
            <mxGeometry x="1528.3" y="439.8918918918919" width="240" height="160" as="geometry" />
          </mxCell>
        </object>
        <mxCell id="YxGHfP7fK5dpNuyqqb7S-6" value="" style="group" parent="N8XQ37z7VI6CD78aaAB8-1" vertex="1" connectable="0">
          <mxGeometry y="236.86486486486487" width="1372.09875" height="1015.1351351351352" as="geometry" />
        </mxCell>
        <mxCell id="clMkcxHVFuiZug1YhBEx-1" value="" style="rounded=0;whiteSpace=wrap;html=1;dashed=1;" parent="YxGHfP7fK5dpNuyqqb7S-6" vertex="1">
          <mxGeometry x="251.81173469387753" y="852.7135135135136" width="881.3410714285712" height="162.42162162162163" as="geometry" />
        </mxCell>
        <mxCell id="clMkcxHVFuiZug1YhBEx-7" value="Registo [User]" style="rounded=1;whiteSpace=wrap;html=1;fontSize=12;glass=0;strokeWidth=1;shadow=0;" parent="YxGHfP7fK5dpNuyqqb7S-6" vertex="1">
          <mxGeometry x="489.63392857142856" y="81.21081081081081" width="167.87448979591838" height="54.14054054054054" as="geometry" />
        </mxCell>
        <mxCell id="clMkcxHVFuiZug1YhBEx-10" value="Token Válido?" style="rhombus;whiteSpace=wrap;html=1;shadow=0;fontFamily=Helvetica;fontSize=12;align=center;strokeWidth=1;spacing=6;spacingTop=-4;" parent="YxGHfP7fK5dpNuyqqb7S-6" vertex="1">
          <mxGeometry x="279.7908163265306" y="257.1675675675676" width="139.8954081632653" height="108.28108108108108" as="geometry" />
        </mxCell>
        <mxCell id="clMkcxHVFuiZug1YhBEx-11" value="Login [User]" style="rounded=1;whiteSpace=wrap;html=1;fontSize=12;glass=0;strokeWidth=1;shadow=0;" parent="YxGHfP7fK5dpNuyqqb7S-6" vertex="1">
          <mxGeometry x="265.80127551020405" y="446.65945945945947" width="167.87448979591838" height="54.14054054054054" as="geometry" />
        </mxCell>
        <mxCell id="clMkcxHVFuiZug1YhBEx-8" value="no" style="rounded=0;html=1;jettySize=auto;orthogonalLoop=1;fontSize=11;endArrow=block;endFill=0;endSize=8;strokeWidth=1;shadow=0;labelBackgroundColor=none;edgeStyle=orthogonalEdgeStyle;" parent="YxGHfP7fK5dpNuyqqb7S-6" source="clMkcxHVFuiZug1YhBEx-10" target="clMkcxHVFuiZug1YhBEx-11" edge="1">
          <mxGeometry x="0.3333" y="20" relative="1" as="geometry">
            <mxPoint as="offset" />
          </mxGeometry>
        </mxCell>
        <mxCell id="clMkcxHVFuiZug1YhBEx-12" value="Autenticação do Utilizador Executada&amp;nbsp;" style="rounded=1;whiteSpace=wrap;html=1;fontSize=12;glass=0;strokeWidth=1;shadow=0;" parent="YxGHfP7fK5dpNuyqqb7S-6" vertex="1">
          <mxGeometry x="489.63392857142856" y="284.23783783783784" width="167.87448979591838" height="54.14054054054054" as="geometry" />
        </mxCell>
        <mxCell id="clMkcxHVFuiZug1YhBEx-9" value="yes" style="edgeStyle=orthogonalEdgeStyle;rounded=0;html=1;jettySize=auto;orthogonalLoop=1;fontSize=11;endArrow=block;endFill=0;endSize=8;strokeWidth=1;shadow=0;labelBackgroundColor=none;" parent="YxGHfP7fK5dpNuyqqb7S-6" source="clMkcxHVFuiZug1YhBEx-10" target="clMkcxHVFuiZug1YhBEx-12" edge="1">
          <mxGeometry x="-0.0118" y="10" relative="1" as="geometry">
            <mxPoint as="offset" />
          </mxGeometry>
        </mxCell>
        <mxCell id="clMkcxHVFuiZug1YhBEx-13" value="Dados de Autenticação Válidos?&amp;nbsp;" style="rhombus;whiteSpace=wrap;html=1;shadow=0;fontFamily=Helvetica;fontSize=12;align=center;strokeWidth=1;spacing=6;spacingTop=-4;" parent="YxGHfP7fK5dpNuyqqb7S-6" vertex="1">
          <mxGeometry x="279.7908163265306" y="583.3643243243242" width="139.8954081632653" height="135.35135135135135" as="geometry" />
        </mxCell>
        <mxCell id="clMkcxHVFuiZug1YhBEx-14" value="" style="endArrow=classic;html=1;rounded=0;exitX=0.5;exitY=1;exitDx=0;exitDy=0;entryX=0.5;entryY=0;entryDx=0;entryDy=0;" parent="YxGHfP7fK5dpNuyqqb7S-6" source="clMkcxHVFuiZug1YhBEx-11" target="clMkcxHVFuiZug1YhBEx-13" edge="1">
          <mxGeometry width="50" height="50" relative="1" as="geometry">
            <mxPoint x="475.64438775510206" y="568.4756756756757" as="sourcePoint" />
            <mxPoint x="545.5920918367347" y="500.8" as="targetPoint" />
          </mxGeometry>
        </mxCell>
        <mxCell id="clMkcxHVFuiZug1YhBEx-15" value="yes" style="edgeStyle=orthogonalEdgeStyle;rounded=0;html=1;jettySize=auto;orthogonalLoop=1;fontSize=11;endArrow=block;endFill=0;endSize=8;strokeWidth=1;shadow=0;labelBackgroundColor=none;entryX=0.164;entryY=0.989;entryDx=0;entryDy=0;entryPerimeter=0;" parent="YxGHfP7fK5dpNuyqqb7S-6" target="clMkcxHVFuiZug1YhBEx-12" edge="1">
          <mxGeometry x="0.0437" y="20" relative="1" as="geometry">
            <mxPoint as="offset" />
            <mxPoint x="419.6862244897958" y="649.6864864864865" as="sourcePoint" />
            <mxPoint x="517.6130102040817" y="351.9135135135135" as="targetPoint" />
            <Array as="points">
              <mxPoint x="419.15875" y="650.8144144144144" />
              <mxPoint x="518.04875" y="650.8144144144144" />
              <mxPoint x="518.04875" y="337.25045045045044" />
            </Array>
          </mxGeometry>
        </mxCell>
        <mxCell id="clMkcxHVFuiZug1YhBEx-16" value="" style="endArrow=none;html=1;rounded=0;entryX=0;entryY=0.5;entryDx=0;entryDy=0;" parent="YxGHfP7fK5dpNuyqqb7S-6" target="clMkcxHVFuiZug1YhBEx-13" edge="1">
          <mxGeometry width="50" height="50" relative="1" as="geometry">
            <mxPoint x="251.81173469387753" y="473.72972972972985" as="sourcePoint" />
            <mxPoint x="265.80127551020405" y="649.6864864864865" as="targetPoint" />
            <Array as="points">
              <mxPoint x="251.81173469387753" y="649.6864864864865" />
            </Array>
          </mxGeometry>
        </mxCell>
        <mxCell id="clMkcxHVFuiZug1YhBEx-17" value="" style="endArrow=classic;html=1;rounded=0;entryX=0;entryY=0.5;entryDx=0;entryDy=0;" parent="YxGHfP7fK5dpNuyqqb7S-6" target="clMkcxHVFuiZug1YhBEx-11" edge="1">
          <mxGeometry width="50" height="50" relative="1" as="geometry">
            <mxPoint x="251.81173469387753" y="473.72972972972985" as="sourcePoint" />
            <mxPoint x="545.5920918367347" y="541.4054054054054" as="targetPoint" />
          </mxGeometry>
        </mxCell>
        <mxCell id="clMkcxHVFuiZug1YhBEx-18" value="no" style="text;html=1;strokeColor=none;fillColor=none;align=center;verticalAlign=middle;whiteSpace=wrap;rounded=0;" parent="YxGHfP7fK5dpNuyqqb7S-6" vertex="1">
          <mxGeometry x="235.9893346938775" y="541.4054054054054" width="83.93724489795919" height="40.605405405405406" as="geometry" />
        </mxCell>
        <mxCell id="clMkcxHVFuiZug1YhBEx-19" value="Criação do Utilizador&amp;nbsp;" style="rounded=1;whiteSpace=wrap;html=1;fontSize=12;glass=0;strokeWidth=1;shadow=0;" parent="YxGHfP7fK5dpNuyqqb7S-6" vertex="1">
          <mxGeometry x="489.63392857142856" y="182.72432432432433" width="167.87448979591838" height="54.14054054054054" as="geometry" />
        </mxCell>
        <mxCell id="clMkcxHVFuiZug1YhBEx-20" value="" style="endArrow=classic;html=1;rounded=0;exitX=0.5;exitY=1;exitDx=0;exitDy=0;entryX=0.5;entryY=0;entryDx=0;entryDy=0;" parent="YxGHfP7fK5dpNuyqqb7S-6" source="clMkcxHVFuiZug1YhBEx-7" target="clMkcxHVFuiZug1YhBEx-19" edge="1">
          <mxGeometry width="50" height="50" relative="1" as="geometry">
            <mxPoint x="643.5188775510204" y="257.1675675675676" as="sourcePoint" />
            <mxPoint x="713.466581632653" y="189.4918918918919" as="targetPoint" />
          </mxGeometry>
        </mxCell>
        <mxCell id="clMkcxHVFuiZug1YhBEx-21" value="" style="endArrow=classic;html=1;rounded=0;exitX=0.5;exitY=1;exitDx=0;exitDy=0;entryX=0.5;entryY=0;entryDx=0;entryDy=0;" parent="YxGHfP7fK5dpNuyqqb7S-6" source="clMkcxHVFuiZug1YhBEx-19" target="clMkcxHVFuiZug1YhBEx-12" edge="1">
          <mxGeometry width="50" height="50" relative="1" as="geometry">
            <mxPoint x="699.4770408163264" y="406.05405405405406" as="sourcePoint" />
            <mxPoint x="769.424744897959" y="338.3783783783784" as="targetPoint" />
          </mxGeometry>
        </mxCell>
        <mxCell id="clMkcxHVFuiZug1YhBEx-22" value="Criar Questão [User]" style="rounded=1;whiteSpace=wrap;html=1;fontSize=12;glass=0;strokeWidth=1;shadow=0;" parent="YxGHfP7fK5dpNuyqqb7S-6" vertex="1">
          <mxGeometry x="489.63392857142856" y="717.3621621621621" width="167.87448979591838" height="54.14054054054054" as="geometry" />
        </mxCell>
        <mxCell id="clMkcxHVFuiZug1YhBEx-23" value="Criar Teste [User]" style="rounded=1;whiteSpace=wrap;html=1;fontSize=12;glass=0;strokeWidth=1;shadow=0;" parent="YxGHfP7fK5dpNuyqqb7S-6" vertex="1">
          <mxGeometry x="895.3306122448978" y="392.5189189189189" width="167.87448979591838" height="54.14054054054054" as="geometry" />
        </mxCell>
        <mxCell id="clMkcxHVFuiZug1YhBEx-25" value="&lt;p style=&quot;line-height: 110%;&quot;&gt;&lt;font style=&quot;font-size: 11px;&quot;&gt;É Solver (Tem 3 questões aceites)&amp;nbsp;&lt;/font&gt;&lt;/p&gt;" style="rhombus;whiteSpace=wrap;html=1;shadow=0;fontFamily=Helvetica;fontSize=12;align=center;strokeWidth=1;spacing=6;spacingTop=-4;" parent="YxGHfP7fK5dpNuyqqb7S-6" vertex="1">
          <mxGeometry x="853.3619897959182" y="236.86486486486493" width="181.86403061224487" height="148.8864864864865" as="geometry" />
        </mxCell>
        <mxCell id="clMkcxHVFuiZug1YhBEx-26" value="" style="edgeStyle=orthogonalEdgeStyle;rounded=0;orthogonalLoop=1;jettySize=auto;html=1;exitX=1;exitY=0.5;exitDx=0;exitDy=0;" parent="YxGHfP7fK5dpNuyqqb7S-6" source="clMkcxHVFuiZug1YhBEx-12" target="clMkcxHVFuiZug1YhBEx-25" edge="1">
          <mxGeometry relative="1" as="geometry">
            <mxPoint x="909.8237765306119" y="303.7284324324324" as="sourcePoint" />
            <mxPoint x="1147.1423469387753" y="500.8" as="targetPoint" />
          </mxGeometry>
        </mxCell>
        <mxCell id="clMkcxHVFuiZug1YhBEx-27" value="" style="endArrow=classic;html=1;rounded=0;entryX=0;entryY=0.5;entryDx=0;entryDy=0;exitX=1;exitY=0.75;exitDx=0;exitDy=0;" parent="YxGHfP7fK5dpNuyqqb7S-6" source="clMkcxHVFuiZug1YhBEx-12" target="clMkcxHVFuiZug1YhBEx-23" edge="1">
          <mxGeometry width="50" height="50" relative="1" as="geometry">
            <mxPoint x="867.3372263782813" y="284.23783783783784" as="sourcePoint" />
            <mxPoint x="1147.1423469387753" y="385.75135135135133" as="targetPoint" />
          </mxGeometry>
        </mxCell>
        <mxCell id="clMkcxHVFuiZug1YhBEx-28" value="Resolver Teste [User]" style="rounded=1;whiteSpace=wrap;html=1;fontSize=12;glass=0;strokeWidth=1;shadow=0;" parent="YxGHfP7fK5dpNuyqqb7S-6" vertex="1">
          <mxGeometry x="1189.1109693877552" y="284.23783783783784" width="167.87448979591838" height="54.14054054054054" as="geometry" />
        </mxCell>
        <mxCell id="clMkcxHVFuiZug1YhBEx-29" value="Consultar Estatísticas do Utilizador [User]" style="rounded=1;whiteSpace=wrap;html=1;fontSize=12;glass=0;strokeWidth=1;shadow=0;" parent="YxGHfP7fK5dpNuyqqb7S-6" vertex="1">
          <mxGeometry x="895.3306122448978" y="473.72972972972985" width="167.87448979591838" height="54.14054054054054" as="geometry" />
        </mxCell>
        <mxCell id="clMkcxHVFuiZug1YhBEx-30" value="" style="endArrow=classic;html=1;rounded=0;fontSize=12;startSize=8;endSize=8;curved=1;entryX=0;entryY=0.5;entryDx=0;entryDy=0;exitX=1;exitY=1;exitDx=0;exitDy=0;" parent="YxGHfP7fK5dpNuyqqb7S-6" source="clMkcxHVFuiZug1YhBEx-12" target="clMkcxHVFuiZug1YhBEx-29" edge="1">
          <mxGeometry width="50" height="50" relative="1" as="geometry">
            <mxPoint x="657.508418367347" y="324.84324324324325" as="sourcePoint" />
            <mxPoint x="895.3306122448978" y="446.65945945945947" as="targetPoint" />
            <Array as="points" />
          </mxGeometry>
        </mxCell>
        <mxCell id="clMkcxHVFuiZug1YhBEx-31" value="Apagar Questão [User]" style="rounded=1;whiteSpace=wrap;html=1;fontSize=12;glass=0;strokeWidth=1;shadow=0;" parent="YxGHfP7fK5dpNuyqqb7S-6" vertex="1">
          <mxGeometry x="671.4979591836735" y="717.3621621621621" width="167.87448979591838" height="54.14054054054054" as="geometry" />
        </mxCell>
        <mxCell id="clMkcxHVFuiZug1YhBEx-32" value="Importar Questões [User]" style="rounded=1;whiteSpace=wrap;html=1;fontSize=12;glass=0;strokeWidth=1;shadow=0;" parent="YxGHfP7fK5dpNuyqqb7S-6" vertex="1">
          <mxGeometry x="895.3306122448978" y="636.1513513513515" width="167.87448979591838" height="54.14054054054054" as="geometry" />
        </mxCell>
        <mxCell id="clMkcxHVFuiZug1YhBEx-33" value="Exportar Questões [User]" style="rounded=1;whiteSpace=wrap;html=1;fontSize=12;glass=0;strokeWidth=1;shadow=0;" parent="YxGHfP7fK5dpNuyqqb7S-6" vertex="1">
          <mxGeometry x="895.3306122448978" y="717.3621621621621" width="167.87448979591838" height="54.14054054054054" as="geometry" />
        </mxCell>
        <mxCell id="clMkcxHVFuiZug1YhBEx-34" value="" style="endArrow=classic;html=1;rounded=0;fontSize=12;startSize=8;endSize=8;curved=1;entryX=0.5;entryY=0;entryDx=0;entryDy=0;exitX=0.58;exitY=0.965;exitDx=0;exitDy=0;exitPerimeter=0;" parent="YxGHfP7fK5dpNuyqqb7S-6" source="clMkcxHVFuiZug1YhBEx-12" target="clMkcxHVFuiZug1YhBEx-31" edge="1">
          <mxGeometry width="50" height="50" relative="1" as="geometry">
            <mxPoint x="794.8297510204081" y="344.1172756756758" as="sourcePoint" />
            <mxPoint x="811.3933673469388" y="419.5891891891892" as="targetPoint" />
          </mxGeometry>
        </mxCell>
        <mxCell id="clMkcxHVFuiZug1YhBEx-35" value="" style="endArrow=classic;html=1;rounded=0;fontSize=12;startSize=8;endSize=8;curved=1;entryX=0.5;entryY=0;entryDx=0;entryDy=0;exitX=0.5;exitY=1;exitDx=0;exitDy=0;" parent="YxGHfP7fK5dpNuyqqb7S-6" source="clMkcxHVFuiZug1YhBEx-12" target="clMkcxHVFuiZug1YhBEx-22" edge="1">
          <mxGeometry width="50" height="50" relative="1" as="geometry">
            <mxPoint x="741.4456632653062" y="554.9405405405405" as="sourcePoint" />
            <mxPoint x="811.3933673469388" y="487.2648648648649" as="targetPoint" />
          </mxGeometry>
        </mxCell>
        <mxCell id="clMkcxHVFuiZug1YhBEx-36" value="" style="endArrow=classic;html=1;rounded=0;fontSize=12;startSize=8;endSize=8;curved=1;entryX=0;entryY=0.5;entryDx=0;entryDy=0;" parent="YxGHfP7fK5dpNuyqqb7S-6" target="clMkcxHVFuiZug1YhBEx-37" edge="1">
          <mxGeometry width="50" height="50" relative="1" as="geometry">
            <mxPoint x="629.5293367346939" y="338.3783783783784" as="sourcePoint" />
            <mxPoint x="1220.4475408163266" y="697.0594594594597" as="targetPoint" />
            <Array as="points" />
          </mxGeometry>
        </mxCell>
        <mxCell id="clMkcxHVFuiZug1YhBEx-37" value="Votar para Aprovar uma Questão [User]" style="rounded=1;whiteSpace=wrap;html=1;fontSize=12;glass=0;strokeWidth=1;shadow=0;" parent="YxGHfP7fK5dpNuyqqb7S-6" vertex="1">
          <mxGeometry x="895.3306122448978" y="554.9405405405405" width="167.87448979591838" height="54.14054054054054" as="geometry" />
        </mxCell>
        <mxCell id="clMkcxHVFuiZug1YhBEx-38" value="" style="endArrow=classic;html=1;rounded=0;fontSize=12;startSize=8;endSize=8;curved=1;entryX=0;entryY=0.5;entryDx=0;entryDy=0;" parent="YxGHfP7fK5dpNuyqqb7S-6" target="clMkcxHVFuiZug1YhBEx-32" edge="1">
          <mxGeometry width="50" height="50" relative="1" as="geometry">
            <mxPoint x="615.5397959183674" y="338.3783783783784" as="sourcePoint" />
            <mxPoint x="811.3933673469388" y="487.2648648648649" as="targetPoint" />
          </mxGeometry>
        </mxCell>
        <mxCell id="clMkcxHVFuiZug1YhBEx-39" value="" style="endArrow=classic;html=1;rounded=0;fontSize=12;startSize=8;endSize=8;curved=1;entryX=0;entryY=0.5;entryDx=0;entryDy=0;" parent="YxGHfP7fK5dpNuyqqb7S-6" target="clMkcxHVFuiZug1YhBEx-33" edge="1">
          <mxGeometry width="50" height="50" relative="1" as="geometry">
            <mxPoint x="601.5502551020409" y="338.3783783783784" as="sourcePoint" />
            <mxPoint x="811.3933673469388" y="487.2648648648649" as="targetPoint" />
            <Array as="points" />
          </mxGeometry>
        </mxCell>
        <mxCell id="clMkcxHVFuiZug1YhBEx-41" value="" style="endArrow=classic;html=1;rounded=0;entryX=0.111;entryY=-0.002;entryDx=0;entryDy=0;entryPerimeter=0;" parent="YxGHfP7fK5dpNuyqqb7S-6" target="clMkcxHVFuiZug1YhBEx-1" edge="1">
          <mxGeometry width="50" height="50" relative="1" as="geometry">
            <mxPoint x="349.7385204081632" y="717.3621621621621" as="sourcePoint" />
            <mxPoint x="384.7123724489795" y="893.3189189189189" as="targetPoint" />
          </mxGeometry>
        </mxCell>
        <mxCell id="clMkcxHVFuiZug1YhBEx-42" value="" style="endArrow=classic;html=1;rounded=0;entryX=0.001;entryY=0.361;entryDx=0;entryDy=0;entryPerimeter=0;" parent="YxGHfP7fK5dpNuyqqb7S-6" target="clMkcxHVFuiZug1YhBEx-1" edge="1">
          <mxGeometry width="50" height="50" relative="1" as="geometry">
            <mxPoint x="487.983162755102" y="189.4918918918919" as="sourcePoint" />
            <mxPoint x="237.82219387755103" y="910.9145945945947" as="targetPoint" />
            <Array as="points">
              <mxPoint x="139.345" y="191.74774774774775" />
              <mxPoint x="134.85" y="911.3657657657658" />
            </Array>
          </mxGeometry>
        </mxCell>
        <mxCell id="clMkcxHVFuiZug1YhBEx-43" value="&lt;p style=&quot;line-height: 120%; font-size: 11px;&quot;&gt;Authorization header foi enviado pelo browser?&amp;nbsp;&lt;/p&gt;" style="rhombus;whiteSpace=wrap;html=1;shadow=0;fontFamily=Helvetica;fontSize=12;align=center;strokeWidth=1;spacing=6;spacingTop=2;" parent="YxGHfP7fK5dpNuyqqb7S-6" vertex="1">
          <mxGeometry x="279.7908163265306" y="81.21081081081081" width="139.8954081632653" height="135.35135135135135" as="geometry" />
        </mxCell>
        <mxCell id="clMkcxHVFuiZug1YhBEx-24" style="edgeStyle=orthogonalEdgeStyle;rounded=0;orthogonalLoop=1;jettySize=auto;html=1;" parent="YxGHfP7fK5dpNuyqqb7S-6" source="clMkcxHVFuiZug1YhBEx-25" target="clMkcxHVFuiZug1YhBEx-28" edge="1">
          <mxGeometry relative="1" as="geometry" />
        </mxCell>
        <mxCell id="clMkcxHVFuiZug1YhBEx-44" value="" style="endArrow=classic;html=1;rounded=0;entryX=0.365;entryY=0.008;entryDx=0;entryDy=0;entryPerimeter=0;exitX=0.5;exitY=1;exitDx=0;exitDy=0;" parent="YxGHfP7fK5dpNuyqqb7S-6" source="clMkcxHVFuiZug1YhBEx-22" target="clMkcxHVFuiZug1YhBEx-1" edge="1">
          <mxGeometry width="50" height="50" relative="1" as="geometry">
            <mxPoint x="601.5502551020409" y="757.9675675675676" as="sourcePoint" />
            <mxPoint x="601.5502551020409" y="839.1783783783784" as="targetPoint" />
          </mxGeometry>
        </mxCell>
        <mxCell id="clMkcxHVFuiZug1YhBEx-45" value="" style="endArrow=classic;html=1;rounded=0;exitX=0.5;exitY=1;exitDx=0;exitDy=0;" parent="YxGHfP7fK5dpNuyqqb7S-6" source="clMkcxHVFuiZug1YhBEx-31" edge="1">
          <mxGeometry width="50" height="50" relative="1" as="geometry">
            <mxPoint x="573.5711734693876" y="717.3621621621621" as="sourcePoint" />
            <mxPoint x="755.4352040816326" y="852.7135135135136" as="targetPoint" />
          </mxGeometry>
        </mxCell>
        <mxCell id="clMkcxHVFuiZug1YhBEx-46" value="" style="endArrow=classic;html=1;rounded=0;entryX=0.825;entryY=-0.041;entryDx=0;entryDy=0;entryPerimeter=0;exitX=0.5;exitY=1;exitDx=0;exitDy=0;" parent="YxGHfP7fK5dpNuyqqb7S-6" source="clMkcxHVFuiZug1YhBEx-33" target="clMkcxHVFuiZug1YhBEx-1" edge="1">
          <mxGeometry width="50" height="50" relative="1" as="geometry">
            <mxPoint x="797.4038265306123" y="764.7351351351351" as="sourcePoint" />
            <mxPoint x="797.4038265306123" y="864.8951351351353" as="targetPoint" />
          </mxGeometry>
        </mxCell>
        <mxCell id="clMkcxHVFuiZug1YhBEx-47" value="" style="endArrow=classic;html=1;rounded=0;entryX=0.963;entryY=-0.031;entryDx=0;entryDy=0;entryPerimeter=0;exitX=1;exitY=0.75;exitDx=0;exitDy=0;" parent="YxGHfP7fK5dpNuyqqb7S-6" source="clMkcxHVFuiZug1YhBEx-32" target="clMkcxHVFuiZug1YhBEx-1" edge="1">
          <mxGeometry width="50" height="50" relative="1" as="geometry">
            <mxPoint x="573.5711734693876" y="717.3621621621621" as="sourcePoint" />
            <mxPoint x="643.5188775510204" y="649.6864864864865" as="targetPoint" />
            <Array as="points">
              <mxPoint x="1100.1512500000001" y="676.7567567567568" />
            </Array>
          </mxGeometry>
        </mxCell>
        <mxCell id="clMkcxHVFuiZug1YhBEx-48" value="" style="endArrow=classic;html=1;rounded=0;exitX=1;exitY=0.75;exitDx=0;exitDy=0;entryX=1;entryY=0.25;entryDx=0;entryDy=0;" parent="YxGHfP7fK5dpNuyqqb7S-6" source="clMkcxHVFuiZug1YhBEx-37" target="clMkcxHVFuiZug1YhBEx-1" edge="1">
          <mxGeometry width="50" height="50" relative="1" as="geometry">
            <mxPoint x="1077.1946428571428" y="609.081081081081" as="sourcePoint" />
            <mxPoint x="1161.131887755102" y="920.3891891891892" as="targetPoint" />
            <Array as="points">
              <mxPoint x="1160.83375" y="595.545945945946" />
              <mxPoint x="1161.131887755102" y="730.8972972972973" />
              <mxPoint x="1161.131887755102" y="893.3189189189189" />
            </Array>
          </mxGeometry>
        </mxCell>
        <mxCell id="clMkcxHVFuiZug1YhBEx-49" value="" style="endArrow=classic;html=1;rounded=0;exitX=1;exitY=0.75;exitDx=0;exitDy=0;entryX=1.002;entryY=0.42;entryDx=0;entryDy=0;entryPerimeter=0;" parent="YxGHfP7fK5dpNuyqqb7S-6" source="clMkcxHVFuiZug1YhBEx-29" target="clMkcxHVFuiZug1YhBEx-1" edge="1">
          <mxGeometry width="50" height="50" relative="1" as="geometry">
            <mxPoint x="1091.1841836734693" y="582.0108108108109" as="sourcePoint" />
            <mxPoint x="1133.1528061224487" y="969.1156756756758" as="targetPoint" />
            <Array as="points">
              <mxPoint x="1191.175" y="514.3351351351351" />
              <mxPoint x="1189.1109693877552" y="920.3891891891892" />
            </Array>
          </mxGeometry>
        </mxCell>
        <mxCell id="clMkcxHVFuiZug1YhBEx-6" value="no" style="edgeStyle=orthogonalEdgeStyle;rounded=0;html=1;jettySize=auto;orthogonalLoop=1;fontSize=11;endArrow=block;endFill=0;endSize=8;strokeWidth=1;shadow=0;labelBackgroundColor=none;" parent="YxGHfP7fK5dpNuyqqb7S-6" source="clMkcxHVFuiZug1YhBEx-43" target="clMkcxHVFuiZug1YhBEx-7" edge="1">
          <mxGeometry x="0.125" y="15" relative="1" as="geometry">
            <mxPoint as="offset" />
          </mxGeometry>
        </mxCell>
        <mxCell id="clMkcxHVFuiZug1YhBEx-50" value="" style="endArrow=classic;html=1;rounded=0;exitX=0.5;exitY=1;exitDx=0;exitDy=0;entryX=1;entryY=0.75;entryDx=0;entryDy=0;" parent="YxGHfP7fK5dpNuyqqb7S-6" source="clMkcxHVFuiZug1YhBEx-28" target="clMkcxHVFuiZug1YhBEx-1" edge="1">
          <mxGeometry width="50" height="50" relative="1" as="geometry">
            <mxPoint x="1077.1946428571428" y="460.1945945945946" as="sourcePoint" />
            <mxPoint x="1147.1423469387753" y="982.6508108108108" as="targetPoint" />
            <Array as="points">
              <mxPoint x="1273.0482142857143" y="974.5297297297298" />
            </Array>
          </mxGeometry>
        </mxCell>
        <mxCell id="clMkcxHVFuiZug1YhBEx-51" value="" style="endArrow=classic;html=1;rounded=0;exitX=1;exitY=0.5;exitDx=0;exitDy=0;" parent="YxGHfP7fK5dpNuyqqb7S-6" source="clMkcxHVFuiZug1YhBEx-23" edge="1">
          <mxGeometry width="50" height="50" relative="1" as="geometry">
            <mxPoint x="1063.2051020408162" y="527.8702702702703" as="sourcePoint" />
            <mxPoint x="1133.1528061224487" y="947.4594594594597" as="targetPoint" />
            <Array as="points">
              <mxPoint x="1217.0900510204083" y="419.5891891891892" />
              <mxPoint x="1217.0900510204083" y="947.4594594594597" />
            </Array>
          </mxGeometry>
        </mxCell>
        <mxCell id="clMkcxHVFuiZug1YhBEx-52" value="read" style="text;html=1;strokeColor=none;fillColor=none;align=center;verticalAlign=middle;whiteSpace=wrap;rounded=0;rotation=0;" parent="YxGHfP7fK5dpNuyqqb7S-6" vertex="1">
          <mxGeometry x="330.1531632653061" y="757.9675675675676" width="83.93724489795919" height="40.605405405405406" as="geometry" />
        </mxCell>
        <mxCell id="clMkcxHVFuiZug1YhBEx-53" value="write" style="text;html=1;strokeColor=none;fillColor=none;align=center;verticalAlign=middle;whiteSpace=wrap;rounded=0;rotation=0;" parent="YxGHfP7fK5dpNuyqqb7S-6" vertex="1">
          <mxGeometry x="138.88632653061222" y="878.2046846846847" width="83.93724489795919" height="40.605405405405406" as="geometry" />
        </mxCell>
        <mxCell id="clMkcxHVFuiZug1YhBEx-54" value="write" style="text;html=1;strokeColor=none;fillColor=none;align=center;verticalAlign=middle;whiteSpace=wrap;rounded=0;rotation=0;" parent="YxGHfP7fK5dpNuyqqb7S-6" vertex="1">
          <mxGeometry x="559.5816326530612" y="771.5027027027027" width="83.93724489795919" height="40.605405405405406" as="geometry" />
        </mxCell>
        <mxCell id="clMkcxHVFuiZug1YhBEx-55" value="read/write" style="text;html=1;strokeColor=none;fillColor=none;align=center;verticalAlign=middle;whiteSpace=wrap;rounded=0;rotation=0;" parent="YxGHfP7fK5dpNuyqqb7S-6" vertex="1">
          <mxGeometry x="756.8341581632653" y="771.5027027027027" width="83.93724489795919" height="40.605405405405406" as="geometry" />
        </mxCell>
        <mxCell id="clMkcxHVFuiZug1YhBEx-57" value="write" style="text;html=1;strokeColor=none;fillColor=none;align=center;verticalAlign=middle;whiteSpace=wrap;rounded=0;rotation=0;" parent="YxGHfP7fK5dpNuyqqb7S-6" vertex="1">
          <mxGeometry x="1046.41742372449" y="648.5585585585586" width="83.93724489795919" height="40.605405405405406" as="geometry" />
        </mxCell>
        <mxCell id="clMkcxHVFuiZug1YhBEx-58" value="read/write" style="text;html=1;strokeColor=none;fillColor=none;align=center;verticalAlign=middle;whiteSpace=wrap;rounded=0;rotation=0;" parent="YxGHfP7fK5dpNuyqqb7S-6" vertex="1">
          <mxGeometry x="1077.1946428571428" y="565.0918918918919" width="83.93724489795919" height="40.605405405405406" as="geometry" />
        </mxCell>
        <mxCell id="clMkcxHVFuiZug1YhBEx-59" value="read/write" style="text;html=1;strokeColor=none;fillColor=none;align=center;verticalAlign=middle;whiteSpace=wrap;rounded=0;rotation=0;" parent="YxGHfP7fK5dpNuyqqb7S-6" vertex="1">
          <mxGeometry x="1133.1528061224487" y="385.75135135135133" width="83.93724489795919" height="40.605405405405406" as="geometry" />
        </mxCell>
        <mxCell id="clMkcxHVFuiZug1YhBEx-60" value="read" style="text;html=1;strokeColor=none;fillColor=none;align=center;verticalAlign=middle;whiteSpace=wrap;rounded=0;rotation=0;" parent="YxGHfP7fK5dpNuyqqb7S-6" vertex="1">
          <mxGeometry x="1119.1632653061224" y="485.009009009009" width="83.93724489795919" height="40.605405405405406" as="geometry" />
        </mxCell>
        <mxCell id="clMkcxHVFuiZug1YhBEx-61" value="read/write" style="text;html=1;strokeColor=none;fillColor=none;align=center;verticalAlign=middle;whiteSpace=wrap;rounded=0;rotation=0;" parent="YxGHfP7fK5dpNuyqqb7S-6" vertex="1">
          <mxGeometry x="1265.3392892857144" y="586.5225225225225" width="83.93724489795919" height="40.605405405405406" as="geometry" />
        </mxCell>
        <mxCell id="clMkcxHVFuiZug1YhBEx-5" value="yes" style="rounded=0;html=1;jettySize=auto;orthogonalLoop=1;fontSize=11;endArrow=block;endFill=0;endSize=8;strokeWidth=1;shadow=0;labelBackgroundColor=none;edgeStyle=orthogonalEdgeStyle;" parent="YxGHfP7fK5dpNuyqqb7S-6" source="clMkcxHVFuiZug1YhBEx-43" target="clMkcxHVFuiZug1YhBEx-10" edge="1">
          <mxGeometry y="20" relative="1" as="geometry">
            <mxPoint as="offset" />
          </mxGeometry>
        </mxCell>
        <object placeholders="1" c4Name="API Application" c4Type="ContainerScopeBoundary" c4Application="Container" label="&lt;font style=&quot;font-size: 16px&quot;&gt;&lt;b&gt;&lt;div style=&quot;text-align: left&quot;&gt;%c4Name%&lt;/div&gt;&lt;/b&gt;&lt;/font&gt;&lt;div style=&quot;text-align: left&quot;&gt;[%c4Application%]&lt;/div&gt;" id="jBpyGhEJ-KC0cIM0ruBI-2">
          <mxCell style="rounded=1;fontSize=11;whiteSpace=wrap;html=1;dashed=1;arcSize=20;fillColor=none;strokeColor=#666666;fontColor=#999999;labelBackgroundColor=none;align=left;verticalAlign=bottom;labelBorderColor=none;spacingTop=0;spacing=10;dashPattern=8 4;metaEdit=1;rotatable=0;perimeter=rectanglePerimeter;labelPadding=0;allowArrows=0;connectable=0;expand=0;recursiveResize=0;editable=1;pointerEvents=0;absoluteArcSize=1;points=[[0.25,0,0],[0.5,0,0],[0.75,0,0],[1,0.25,0],[1,0.5,0],[1,0.75,0],[0.75,1,0],[0.5,1,0],[0.25,1,0],[0,0.75,0],[0,0.5,0],[0,0.25,0]];strokeWidth=1;" parent="YxGHfP7fK5dpNuyqqb7S-6" vertex="1">
            <mxGeometry x="-13.485" y="6.767567567567568" width="1385.58375" height="818.8756756756757" as="geometry" />
          </mxCell>
        </object>
        <object c4Type="Base de Dados" c4Container="Container" c4Technology="SQLite" label="&lt;font style=&quot;font-size: 16px&quot;&gt;&lt;b&gt;%c4Type%&lt;/b&gt;&lt;/font&gt;&lt;div&gt;[%c4Container%:&amp;nbsp;%c4Technology%]&lt;/div&gt;&lt;br&gt;&lt;div&gt;&lt;font style=&quot;font-size: 11px&quot;&gt;&lt;font color=&quot;#E6E6E6&quot;&gt;%c4Description%&lt;/font&gt;&lt;/div&gt;" placeholders="1" c4Description="" id="jBpyGhEJ-KC0cIM0ruBI-3">
          <mxCell style="shape=cylinder3;size=10;whiteSpace=wrap;html=1;boundedLbl=1;rounded=0;labelBackgroundColor=none;fontSize=12;align=center;metaEdit=1;points=[[0.5,0,0],[1,0.25,0],[1,0.5,0],[1,0.75,0],[0.5,1,0],[0,0.75,0],[0,0.5,0],[0,0.25,0]];resizable=1;rotation=0;autosize=0;editable=1;movable=1;rotatable=1;deletable=1;locked=0;connectable=1;recursiveResize=1;collapsible=0;container=1;strokeColor=default;strokeWidth=2;fillStyle=auto;" parent="YxGHfP7fK5dpNuyqqb7S-6" vertex="1">
            <mxGeometry x="615.567775" y="879.7837837837837" width="153.83013749999998" height="108.28108108108108" as="geometry" />
          </mxCell>
        </object>
        <mxCell id="clMkcxHVFuiZug1YhBEx-56" value="read" style="text;html=1;strokeColor=none;fillColor=none;align=center;verticalAlign=middle;whiteSpace=wrap;rounded=0;rotation=0;" parent="YxGHfP7fK5dpNuyqqb7S-6" vertex="1">
          <mxGeometry x="959.682270663265" y="776.0144144144144" width="83.93724489795919" height="40.605405405405406" as="geometry" />
        </mxCell>
        <mxCell id="YxGHfP7fK5dpNuyqqb7S-11" value="comunica com" style="edgeStyle=orthogonalEdgeStyle;rounded=0;orthogonalLoop=1;jettySize=auto;html=1;exitX=0.004;exitY=0.557;exitDx=0;exitDy=0;entryX=1;entryY=0.75;entryDx=0;entryDy=0;exitPerimeter=0;dashed=1;dashPattern=1 1;" parent="N8XQ37z7VI6CD78aaAB8-1" source="PHthmckFnBj6GMdcYPBt-1" target="clMkcxHVFuiZug1YhBEx-33" edge="1">
          <mxGeometry x="-0.5027" relative="1" as="geometry">
            <Array as="points">
              <mxPoint x="1529.42375" y="994.8324324324325" />
            </Array>
            <mxPoint as="offset" />
          </mxGeometry>
        </mxCell>
        <mxCell id="YxGHfP7fK5dpNuyqqb7S-12" value="comunica com" style="edgeStyle=orthogonalEdgeStyle;rounded=0;orthogonalLoop=1;jettySize=auto;html=1;exitX=-0.002;exitY=0.311;exitDx=0;exitDy=0;entryX=1;entryY=0.25;entryDx=0;entryDy=0;exitPerimeter=0;dashed=1;dashPattern=1 1;" parent="N8XQ37z7VI6CD78aaAB8-1" source="PHthmckFnBj6GMdcYPBt-1" target="clMkcxHVFuiZug1YhBEx-32" edge="1">
          <mxGeometry x="-0.4466" relative="1" as="geometry">
            <Array as="points">
              <mxPoint x="1415.925" y="947.4594594594595" />
              <mxPoint x="1415.925" y="886.5513513513514" />
            </Array>
            <mxPoint as="offset" />
          </mxGeometry>
        </mxCell>
        <mxCell id="YxGHfP7fK5dpNuyqqb7S-14" value="comunica com" style="edgeStyle=orthogonalEdgeStyle;rounded=0;orthogonalLoop=1;jettySize=auto;html=1;entryX=1;entryY=0;entryDx=0;entryDy=0;dashed=1;dashPattern=1 1;" parent="N8XQ37z7VI6CD78aaAB8-1" target="clMkcxHVFuiZug1YhBEx-37" edge="1">
          <mxGeometry x="-0.5093" y="-2" relative="1" as="geometry">
            <mxPoint x="1528.3" y="789.5495495495495" as="sourcePoint" />
            <Array as="points">
              <mxPoint x="1528.3" y="791.8054054054054" />
            </Array>
            <mxPoint as="offset" />
          </mxGeometry>
        </mxCell>
        <mxCell id="YxGHfP7fK5dpNuyqqb7S-15" value="comunica com" style="edgeStyle=orthogonalEdgeStyle;rounded=0;orthogonalLoop=1;jettySize=auto;html=1;exitX=0;exitY=0.75;exitDx=0;exitDy=0;entryX=1;entryY=0;entryDx=0;entryDy=0;exitPerimeter=0;dashed=1;dashPattern=1 1;" parent="N8XQ37z7VI6CD78aaAB8-1" source="sPyPz_i8Z7CjeB8h4v_E-1" target="clMkcxHVFuiZug1YhBEx-29" edge="1">
          <mxGeometry x="-0.4757" relative="1" as="geometry">
            <Array as="points">
              <mxPoint x="1415.925" y="575.2432432432432" />
              <mxPoint x="1415.925" y="710.5945945945946" />
            </Array>
            <mxPoint as="offset" />
          </mxGeometry>
        </mxCell>
        <mxCell id="YxGHfP7fK5dpNuyqqb7S-16" value="comunica com" style="edgeStyle=orthogonalEdgeStyle;rounded=0;orthogonalLoop=1;jettySize=auto;html=1;exitX=0;exitY=0.5;exitDx=0;exitDy=0;entryX=1;entryY=0.25;entryDx=0;entryDy=0;exitPerimeter=0;dashed=1;dashPattern=1 1;" parent="N8XQ37z7VI6CD78aaAB8-1" source="IMZYx-yUG_YBl6SAn0AE-1" target="clMkcxHVFuiZug1YhBEx-28" edge="1">
          <mxGeometry relative="1" as="geometry">
            <Array as="points">
              <mxPoint x="1415.925" y="304.5405405405405" />
              <mxPoint x="1415.925" y="534.6378378378379" />
            </Array>
          </mxGeometry>
        </mxCell>
        <mxCell id="YxGHfP7fK5dpNuyqqb7S-17" value="comunica com" style="edgeStyle=orthogonalEdgeStyle;rounded=0;orthogonalLoop=1;jettySize=auto;html=1;exitX=0.53;exitY=0.981;exitDx=0;exitDy=0;entryX=1;entryY=0;entryDx=0;entryDy=0;exitPerimeter=0;dashed=1;dashPattern=1 1;" parent="N8XQ37z7VI6CD78aaAB8-1" source="y0l5qcVMaJ8DRe2l7gMj-1" target="clMkcxHVFuiZug1YhBEx-23" edge="1">
          <mxGeometry x="-0.7804" relative="1" as="geometry">
            <Array as="points">
              <mxPoint x="1064.19125" y="180.46846846846847" />
              <mxPoint x="1063.0675" y="180.46846846846847" />
            </Array>
            <mxPoint as="offset" />
          </mxGeometry>
        </mxCell>
        <mxCell id="YxGHfP7fK5dpNuyqqb7S-19" value="comunica com" style="edgeStyle=orthogonalEdgeStyle;rounded=0;orthogonalLoop=1;jettySize=auto;html=1;exitX=0.5;exitY=1;exitDx=0;exitDy=0;exitPerimeter=0;entryX=0;entryY=0.5;entryDx=0;entryDy=0;dashed=1;dashPattern=1 1;" parent="N8XQ37z7VI6CD78aaAB8-1" source="yzRLdxZ8VSo4Qz4Puve0-1" target="clMkcxHVFuiZug1YhBEx-22" edge="1">
          <mxGeometry x="-0.9205" relative="1" as="geometry">
            <mxPoint as="offset" />
          </mxGeometry>
        </mxCell>
        <mxCell id="YxGHfP7fK5dpNuyqqb7S-20" value="comunica com" style="edgeStyle=orthogonalEdgeStyle;rounded=0;orthogonalLoop=1;jettySize=auto;html=1;entryX=0.802;entryY=0.049;entryDx=0;entryDy=0;entryPerimeter=0;dashed=1;dashPattern=1 1;" parent="N8XQ37z7VI6CD78aaAB8-1" source="I7LqDZJ3CJZZwzFoDigh-1" target="clMkcxHVFuiZug1YhBEx-7" edge="1">
          <mxGeometry x="-0.3574" relative="1" as="geometry">
            <mxPoint y="-1" as="offset" />
          </mxGeometry>
        </mxCell>
        <mxCell id="YxGHfP7fK5dpNuyqqb7S-22" style="edgeStyle=orthogonalEdgeStyle;rounded=0;orthogonalLoop=1;jettySize=auto;html=1;entryX=0.5;entryY=0;entryDx=0;entryDy=0;" parent="N8XQ37z7VI6CD78aaAB8-1" source="YxGHfP7fK5dpNuyqqb7S-21" target="clMkcxHVFuiZug1YhBEx-43" edge="1">
          <mxGeometry relative="1" as="geometry">
            <Array as="points">
              <mxPoint x="404.55" y="270.7027027027027" />
              <mxPoint x="349.48625" y="270.7027027027027" />
            </Array>
          </mxGeometry>
        </mxCell>
        <mxCell id="YxGHfP7fK5dpNuyqqb7S-21" value="Entrada na Landing Page [User]" style="rounded=1;whiteSpace=wrap;html=1;fontSize=12;glass=0;strokeWidth=1;shadow=0;dashed=1;" parent="N8XQ37z7VI6CD78aaAB8-1" vertex="1">
          <mxGeometry x="337.125" y="146.63063063063063" width="134.85" height="67.67567567567568" as="geometry" />
        </mxCell>
        <mxCell id="YxGHfP7fK5dpNuyqqb7S-23" value="comunica com" style="edgeStyle=orthogonalEdgeStyle;rounded=0;orthogonalLoop=1;jettySize=auto;html=1;exitX=0;exitY=0.5;exitDx=0;exitDy=0;entryX=0;entryY=0;entryDx=0;entryDy=0;dashed=1;dashPattern=1 1;exitPerimeter=0;" parent="N8XQ37z7VI6CD78aaAB8-1" source="I7LqDZJ3CJZZwzFoDigh-1" target="clMkcxHVFuiZug1YhBEx-11" edge="1">
          <mxGeometry x="-0.1196" relative="1" as="geometry">
            <Array as="points">
              <mxPoint x="314.65000000000003" y="90.23423423423424" />
              <mxPoint x="314.65000000000003" y="203.02702702702703" />
              <mxPoint x="265.205" y="203.02702702702703" />
            </Array>
            <mxPoint as="offset" />
          </mxGeometry>
        </mxCell>
        <mxCell id="jBpyGhEJ-KC0cIM0ruBI-1" style="edgeStyle=orthogonalEdgeStyle;rounded=0;orthogonalLoop=1;jettySize=auto;html=1;exitX=0.5;exitY=0;exitDx=0;exitDy=0;entryX=0.01;entryY=0.681;entryDx=0;entryDy=0;entryPerimeter=0;" parent="N8XQ37z7VI6CD78aaAB8-1" source="YxGHfP7fK5dpNuyqqb7S-21" target="I7LqDZJ3CJZZwzFoDigh-1" edge="1">
          <mxGeometry relative="1" as="geometry" />
        </mxCell>
      </root>
    </mxGraphModel>
  </diagram>
  <diagram id="bSWXkAvd_tsCFk12IrZO" name="FrontEnd">
    <mxGraphModel dx="7404" dy="5311" grid="0" gridSize="10" guides="1" tooltips="1" connect="1" arrows="1" fold="1" page="1" pageScale="1" pageWidth="3300" pageHeight="2339" math="0" shadow="0">
      <root>
        <mxCell id="0" />
        <mxCell id="1" parent="0" />
        <mxCell id="v5BvNIy_yjGMQrVk9MFP-1" value="" style="group" vertex="1" connectable="0" parent="1">
          <mxGeometry x="-3227" y="-2115" width="3198" height="1970" as="geometry" />
        </mxCell>
        <mxCell id="SUS5FGJaybXMIl3Ot1Ep-1" value="CreateTest" style="verticalAlign=top;align=left;spacingTop=8;spacingLeft=2;spacingRight=12;shape=cube;size=10;direction=south;fontStyle=4;html=1;rounded=0;shadow=0;comic=0;labelBackgroundColor=none;strokeWidth=1;fontFamily=Verdana;fontSize=12;" vertex="1" parent="v5BvNIy_yjGMQrVk9MFP-1">
          <mxGeometry x="2358.878504672897" y="987.7714285714286" width="402.97507788161994" height="235.8857142857143" as="geometry" />
        </mxCell>
        <mxCell id="SUS5FGJaybXMIl3Ot1Ep-2" value="Home" style="verticalAlign=top;align=left;spacingTop=8;spacingLeft=2;spacingRight=12;shape=cube;size=10;direction=south;fontStyle=4;html=1;rounded=0;shadow=0;comic=0;labelBackgroundColor=none;strokeWidth=1;fontFamily=Verdana;fontSize=12;" vertex="1" parent="v5BvNIy_yjGMQrVk9MFP-1">
          <mxGeometry x="1071.3239875389409" y="329.25714285714287" width="344.00311526479754" height="294.8571428571429" as="geometry" />
        </mxCell>
        <mxCell id="SUS5FGJaybXMIl3Ot1Ep-3" value="App" style="verticalAlign=top;align=left;spacingTop=8;spacingLeft=2;spacingRight=12;shape=cube;size=10;direction=south;fontStyle=4;html=1;rounded=0;shadow=0;comic=0;labelBackgroundColor=none;strokeWidth=1;fontFamily=Verdana;fontSize=12;" vertex="1" parent="v5BvNIy_yjGMQrVk9MFP-1">
          <mxGeometry x="1481.6705607476636" width="535.6619937694704" height="157.25714285714287" as="geometry" />
        </mxCell>
        <mxCell id="SUS5FGJaybXMIl3Ot1Ep-4" value="NavBar&lt;br&gt;" style="verticalAlign=top;align=left;spacingTop=8;spacingLeft=2;spacingRight=12;shape=cube;size=10;direction=south;fontStyle=4;html=1;rounded=0;shadow=0;comic=0;labelBackgroundColor=none;strokeWidth=1;fontFamily=Verdana;fontSize=12;" vertex="1" parent="v5BvNIy_yjGMQrVk9MFP-1">
          <mxGeometry x="1358.8123052959502" y="1331.7714285714285" width="442.2897196261682" height="167.0857142857143" as="geometry" />
        </mxCell>
        <mxCell id="SUS5FGJaybXMIl3Ot1Ep-5" value="Autenticação" style="verticalAlign=top;align=left;spacingTop=8;spacingLeft=2;spacingRight=12;shape=cube;size=10;direction=south;fontStyle=4;html=1;rounded=0;shadow=0;comic=0;labelBackgroundColor=none;strokeWidth=1;fontFamily=Verdana;fontSize=12;" vertex="1" parent="v5BvNIy_yjGMQrVk9MFP-1">
          <mxGeometry x="1552.9283489096574" y="319.42857142857144" width="393.1464174454829" height="461.9428571428572" as="geometry" />
        </mxCell>
        <mxCell id="SUS5FGJaybXMIl3Ot1Ep-6" value="Header" style="html=1;rounded=0;shadow=0;comic=0;labelBackgroundColor=none;strokeWidth=1;fontFamily=Verdana;fontSize=12;align=center;" vertex="1" parent="v5BvNIy_yjGMQrVk9MFP-1">
          <mxGeometry x="1602.0716510903428" y="373.48571428571427" width="117.94392523364486" height="49.142857142857146" as="geometry" />
        </mxCell>
        <mxCell id="SUS5FGJaybXMIl3Ot1Ep-7" value="Login.js" style="shape=component;align=left;spacingLeft=36;rounded=0;shadow=0;comic=0;labelBackgroundColor=none;strokeWidth=1;fontFamily=Verdana;fontSize=12;html=1;" vertex="1" parent="v5BvNIy_yjGMQrVk9MFP-1">
          <mxGeometry x="1759.330218068536" y="368.57142857142856" width="117.94392523364486" height="58.971428571428575" as="geometry" />
        </mxCell>
        <mxCell id="SUS5FGJaybXMIl3Ot1Ep-8" style="edgeStyle=orthogonalEdgeStyle;rounded=0;html=1;labelBackgroundColor=none;startArrow=none;startFill=0;startSize=8;endArrow=open;endFill=0;endSize=16;fontFamily=Verdana;fontSize=12;dashed=1;fontColor=default;" edge="1" parent="v5BvNIy_yjGMQrVk9MFP-1" source="SUS5FGJaybXMIl3Ot1Ep-7" target="SUS5FGJaybXMIl3Ot1Ep-6">
          <mxGeometry relative="1" as="geometry">
            <Array as="points">
              <mxPoint x="1798.6448598130842" y="452.1142857142857" />
              <mxPoint x="1665.9579439252338" y="452.1142857142857" />
            </Array>
          </mxGeometry>
        </mxCell>
        <mxCell id="SUS5FGJaybXMIl3Ot1Ep-9" value="LoginForm" style="html=1;rounded=0;shadow=0;comic=0;labelBackgroundColor=none;strokeWidth=1;fontFamily=Verdana;fontSize=12;align=center;" vertex="1" parent="v5BvNIy_yjGMQrVk9MFP-1">
          <mxGeometry x="1602.0716510903428" y="481.6" width="117.94392523364486" height="49.142857142857146" as="geometry" />
        </mxCell>
        <mxCell id="SUS5FGJaybXMIl3Ot1Ep-10" style="edgeStyle=orthogonalEdgeStyle;rounded=0;html=1;labelBackgroundColor=none;startArrow=none;startFill=0;startSize=8;endArrow=open;endFill=0;endSize=16;fontFamily=Verdana;fontSize=12;dashed=1;fontColor=default;" edge="1" parent="v5BvNIy_yjGMQrVk9MFP-1">
          <mxGeometry relative="1" as="geometry">
            <Array as="points">
              <mxPoint x="1813.3878504672898" y="560.2285714285714" />
              <mxPoint x="1661.0436137071652" y="560.2285714285714" />
              <mxPoint x="1661.0436137071652" y="530.7428571428571" />
            </Array>
            <mxPoint x="1813.3878504672898" y="427.54285714285714" as="sourcePoint" />
            <mxPoint x="1661.0436137071652" y="530.7428571428571" as="targetPoint" />
          </mxGeometry>
        </mxCell>
        <mxCell id="SUS5FGJaybXMIl3Ot1Ep-11" value="RegisterForm" style="html=1;rounded=0;shadow=0;comic=0;labelBackgroundColor=none;strokeWidth=1;fontFamily=Verdana;fontSize=12;align=center;" vertex="1" parent="v5BvNIy_yjGMQrVk9MFP-1">
          <mxGeometry x="1592.2429906542056" y="584.8" width="137.60124610591902" height="54.05714285714286" as="geometry" />
        </mxCell>
        <mxCell id="SUS5FGJaybXMIl3Ot1Ep-12" style="edgeStyle=orthogonalEdgeStyle;rounded=0;html=1;labelBackgroundColor=none;startArrow=none;startFill=0;startSize=8;endArrow=open;endFill=0;endSize=16;fontFamily=Verdana;fontSize=12;dashed=1;fontColor=default;" edge="1" parent="v5BvNIy_yjGMQrVk9MFP-1" source="SUS5FGJaybXMIl3Ot1Ep-7">
          <mxGeometry relative="1" as="geometry">
            <Array as="points">
              <mxPoint x="1828.1308411214955" y="663.4285714285714" />
              <mxPoint x="1661.0436137071652" y="663.4285714285714" />
            </Array>
            <mxPoint x="1847.7881619937696" y="520.9142857142857" as="sourcePoint" />
            <mxPoint x="1661.0436137071652" y="638.8571428571429" as="targetPoint" />
          </mxGeometry>
        </mxCell>
        <mxCell id="SUS5FGJaybXMIl3Ot1Ep-13" style="edgeStyle=orthogonalEdgeStyle;rounded=0;orthogonalLoop=1;jettySize=auto;html=1;endSize=16;endArrow=open;endFill=0;dashed=1;exitX=0;exitY=0;exitDx=300;exitDy=180;strokeWidth=3;exitPerimeter=0;entryX=0;entryY=0;entryDx=0;entryDy=220;entryPerimeter=0;labelBackgroundColor=none;fontColor=default;" edge="1" parent="v5BvNIy_yjGMQrVk9MFP-1" source="SUS5FGJaybXMIl3Ot1Ep-2" target="SUS5FGJaybXMIl3Ot1Ep-4">
          <mxGeometry relative="1" as="geometry">
            <mxPoint x="1336.6978193146417" y="643.7714285714286" as="sourcePoint" />
            <mxPoint x="1562.7570093457946" y="1493.942857142857" as="targetPoint" />
            <Array as="points">
              <mxPoint x="1238.4112149532712" y="869.8285714285714" />
              <mxPoint x="1585.3629283489097" y="869.8285714285714" />
            </Array>
          </mxGeometry>
        </mxCell>
        <mxCell id="SUS5FGJaybXMIl3Ot1Ep-14" value="Home.js" style="shape=component;align=left;spacingLeft=36;rounded=0;shadow=0;comic=0;labelBackgroundColor=none;strokeWidth=1;fontFamily=Verdana;fontSize=12;html=1;" vertex="1" parent="v5BvNIy_yjGMQrVk9MFP-1">
          <mxGeometry x="1110.638629283489" y="368.57142857142856" width="117.94392523364486" height="58.971428571428575" as="geometry" />
        </mxCell>
        <mxCell id="SUS5FGJaybXMIl3Ot1Ep-15" value="MyQuizzes" style="html=1;rounded=0;shadow=0;comic=0;labelBackgroundColor=none;strokeWidth=1;fontFamily=Verdana;fontSize=12;align=center;" vertex="1" parent="v5BvNIy_yjGMQrVk9MFP-1">
          <mxGeometry x="1267.8971962616822" y="373.48571428571427" width="108.11526479750779" height="49.142857142857146" as="geometry" />
        </mxCell>
        <mxCell id="SUS5FGJaybXMIl3Ot1Ep-16" style="edgeStyle=orthogonalEdgeStyle;rounded=0;html=1;dashed=1;labelBackgroundColor=none;startArrow=none;startFill=0;startSize=8;endArrow=open;endFill=0;endSize=16;fontFamily=Verdana;fontSize=12;fontColor=default;" edge="1" parent="v5BvNIy_yjGMQrVk9MFP-1" source="SUS5FGJaybXMIl3Ot1Ep-14" target="SUS5FGJaybXMIl3Ot1Ep-15">
          <mxGeometry relative="1" as="geometry" />
        </mxCell>
        <mxCell id="SUS5FGJaybXMIl3Ot1Ep-17" value="HallofFame" style="html=1;rounded=0;shadow=0;comic=0;labelBackgroundColor=none;strokeWidth=1;fontFamily=Verdana;fontSize=12;align=center;" vertex="1" parent="v5BvNIy_yjGMQrVk9MFP-1">
          <mxGeometry x="1267.8971962616822" y="457.0285714285714" width="117.94392523364486" height="49.142857142857146" as="geometry" />
        </mxCell>
        <mxCell id="SUS5FGJaybXMIl3Ot1Ep-18" value="Home" style="html=1;rounded=0;shadow=0;comic=0;labelBackgroundColor=none;strokeWidth=1;fontFamily=Verdana;fontSize=12;align=center;" vertex="1" parent="v5BvNIy_yjGMQrVk9MFP-1">
          <mxGeometry x="1277.7258566978194" y="545.4857142857143" width="117.94392523364486" height="58.971428571428575" as="geometry" />
        </mxCell>
        <mxCell id="SUS5FGJaybXMIl3Ot1Ep-19" style="edgeStyle=orthogonalEdgeStyle;rounded=0;html=1;dashed=1;labelBackgroundColor=none;startArrow=none;startFill=0;startSize=8;endArrow=open;endFill=0;endSize=16;fontFamily=Verdana;fontSize=12;entryX=0;entryY=0.75;entryDx=0;entryDy=0;exitX=0.5;exitY=1;exitDx=0;exitDy=0;fontColor=default;" edge="1" parent="v5BvNIy_yjGMQrVk9MFP-1" source="SUS5FGJaybXMIl3Ot1Ep-14" target="SUS5FGJaybXMIl3Ot1Ep-17">
          <mxGeometry relative="1" as="geometry">
            <mxPoint x="1238.4112149532712" y="407.8857142857143" as="sourcePoint" />
            <mxPoint x="1277.7258566978194" y="407.8857142857143" as="targetPoint" />
            <Array as="points">
              <mxPoint x="1169.6105919003116" y="494.37714285714287" />
            </Array>
          </mxGeometry>
        </mxCell>
        <mxCell id="SUS5FGJaybXMIl3Ot1Ep-20" style="edgeStyle=none;rounded=0;html=1;dashed=1;labelBackgroundColor=none;startArrow=none;startFill=0;startSize=8;endArrow=open;endFill=0;endSize=16;fontFamily=Verdana;fontSize=12;exitX=0.25;exitY=1;exitDx=0;exitDy=0;fontColor=default;" edge="1" parent="v5BvNIy_yjGMQrVk9MFP-1" source="SUS5FGJaybXMIl3Ot1Ep-14">
          <mxGeometry relative="1" as="geometry">
            <mxPoint x="1027.095015576324" y="615.2685714285715" as="sourcePoint" />
            <mxPoint x="1277.7258566978194" y="584.8" as="targetPoint" />
            <Array as="points">
              <mxPoint x="1140.1246105919004" y="506.1714285714286" />
              <mxPoint x="1140.1246105919004" y="545.4857142857143" />
              <mxPoint x="1140.1246105919004" y="584.8" />
            </Array>
          </mxGeometry>
        </mxCell>
        <mxCell id="SUS5FGJaybXMIl3Ot1Ep-21" value="NavBar.js" style="shape=component;align=left;spacingLeft=36;rounded=0;shadow=0;comic=0;labelBackgroundColor=none;strokeWidth=1;fontFamily=Verdana;fontSize=12;html=1;" vertex="1" parent="v5BvNIy_yjGMQrVk9MFP-1">
          <mxGeometry x="1427.6129283489097" y="1390.7428571428572" width="117.94392523364486" height="58.971428571428575" as="geometry" />
        </mxCell>
        <mxCell id="SUS5FGJaybXMIl3Ot1Ep-22" value="NavBar." style="html=1;rounded=0;shadow=0;comic=0;labelBackgroundColor=none;strokeWidth=1;fontFamily=Verdana;fontSize=12;align=center;" vertex="1" parent="v5BvNIy_yjGMQrVk9MFP-1">
          <mxGeometry x="1614.357476635514" y="1395.6571428571428" width="108.11526479750779" height="49.142857142857146" as="geometry" />
        </mxCell>
        <mxCell id="SUS5FGJaybXMIl3Ot1Ep-23" style="edgeStyle=orthogonalEdgeStyle;rounded=0;html=1;dashed=1;labelBackgroundColor=none;startArrow=none;startFill=0;startSize=8;endArrow=open;endFill=0;endSize=16;fontFamily=Verdana;fontSize=12;fontColor=default;" edge="1" parent="v5BvNIy_yjGMQrVk9MFP-1" source="SUS5FGJaybXMIl3Ot1Ep-21" target="SUS5FGJaybXMIl3Ot1Ep-22">
          <mxGeometry relative="1" as="geometry" />
        </mxCell>
        <mxCell id="SUS5FGJaybXMIl3Ot1Ep-24" value="Profile" style="verticalAlign=top;align=left;spacingTop=8;spacingLeft=2;spacingRight=12;shape=cube;size=10;direction=south;fontStyle=4;html=1;rounded=0;shadow=0;comic=0;labelBackgroundColor=none;strokeWidth=1;fontFamily=Verdana;fontSize=12;" vertex="1" parent="v5BvNIy_yjGMQrVk9MFP-1">
          <mxGeometry x="2064.0186915887853" y="319.42857142857144" width="393.1464174454829" height="275.2" as="geometry" />
        </mxCell>
        <mxCell id="SUS5FGJaybXMIl3Ot1Ep-25" value="Profile.js" style="shape=component;align=left;spacingLeft=36;rounded=0;shadow=0;comic=0;labelBackgroundColor=none;strokeWidth=1;fontFamily=Verdana;fontSize=12;html=1;" vertex="1" parent="v5BvNIy_yjGMQrVk9MFP-1">
          <mxGeometry x="2113.1619937694704" y="344" width="117.94392523364486" height="58.971428571428575" as="geometry" />
        </mxCell>
        <mxCell id="SUS5FGJaybXMIl3Ot1Ep-26" value="CreatorChart" style="html=1;rounded=0;shadow=0;comic=0;labelBackgroundColor=none;strokeWidth=1;fontFamily=Verdana;fontSize=12;align=center;" vertex="1" parent="v5BvNIy_yjGMQrVk9MFP-1">
          <mxGeometry x="2270.420560747664" y="348.9142857142857" width="108.11526479750779" height="49.142857142857146" as="geometry" />
        </mxCell>
        <mxCell id="SUS5FGJaybXMIl3Ot1Ep-27" style="edgeStyle=orthogonalEdgeStyle;rounded=0;html=1;dashed=1;labelBackgroundColor=none;startArrow=none;startFill=0;startSize=8;endArrow=open;endFill=0;endSize=16;fontFamily=Verdana;fontSize=12;fontColor=default;" edge="1" parent="v5BvNIy_yjGMQrVk9MFP-1" source="SUS5FGJaybXMIl3Ot1Ep-25" target="SUS5FGJaybXMIl3Ot1Ep-26">
          <mxGeometry relative="1" as="geometry" />
        </mxCell>
        <mxCell id="SUS5FGJaybXMIl3Ot1Ep-28" value="SolverChartAnswers" style="html=1;rounded=0;shadow=0;comic=0;labelBackgroundColor=none;strokeWidth=1;fontFamily=Verdana;fontSize=12;align=center;" vertex="1" parent="v5BvNIy_yjGMQrVk9MFP-1">
          <mxGeometry x="2270.420560747664" y="432.45714285714286" width="147.42990654205607" height="49.142857142857146" as="geometry" />
        </mxCell>
        <mxCell id="SUS5FGJaybXMIl3Ot1Ep-29" value="Profile" style="html=1;rounded=0;shadow=0;comic=0;labelBackgroundColor=none;strokeWidth=1;fontFamily=Verdana;fontSize=12;align=center;" vertex="1" parent="v5BvNIy_yjGMQrVk9MFP-1">
          <mxGeometry x="2270.420560747664" y="520.9142857142857" width="147.42990654205607" height="58.971428571428575" as="geometry" />
        </mxCell>
        <mxCell id="SUS5FGJaybXMIl3Ot1Ep-30" style="edgeStyle=orthogonalEdgeStyle;rounded=0;html=1;dashed=1;labelBackgroundColor=none;startArrow=none;startFill=0;startSize=8;endArrow=open;endFill=0;endSize=16;fontFamily=Verdana;fontSize=12;entryX=0;entryY=0.75;entryDx=0;entryDy=0;exitX=0.395;exitY=0.561;exitDx=0;exitDy=0;exitPerimeter=0;fontColor=default;" edge="1" parent="v5BvNIy_yjGMQrVk9MFP-1" source="SUS5FGJaybXMIl3Ot1Ep-24" target="SUS5FGJaybXMIl3Ot1Ep-28">
          <mxGeometry relative="1" as="geometry">
            <mxPoint x="2240.9345794392525" y="383.31428571428575" as="sourcePoint" />
            <mxPoint x="2280.2492211838007" y="383.31428571428575" as="targetPoint" />
            <Array as="points">
              <mxPoint x="2172.133956386293" y="402.9714285714286" />
              <mxPoint x="2172.133956386293" y="469.8057142857143" />
            </Array>
          </mxGeometry>
        </mxCell>
        <mxCell id="SUS5FGJaybXMIl3Ot1Ep-31" style="edgeStyle=none;rounded=0;html=1;dashed=1;labelBackgroundColor=none;startArrow=none;startFill=0;startSize=8;endArrow=open;endFill=0;endSize=16;fontFamily=Verdana;fontSize=12;exitX=0.25;exitY=1;exitDx=0;exitDy=0;entryX=-0.008;entryY=0.64;entryDx=0;entryDy=0;entryPerimeter=0;fontColor=default;" edge="1" parent="v5BvNIy_yjGMQrVk9MFP-1" source="SUS5FGJaybXMIl3Ot1Ep-25" target="SUS5FGJaybXMIl3Ot1Ep-29">
          <mxGeometry relative="1" as="geometry">
            <mxPoint x="2029.6183800623055" y="590.6971428571429" as="sourcePoint" />
            <mxPoint x="2113.1619937694704" y="432.45714285714286" as="targetPoint" />
            <Array as="points">
              <mxPoint x="2142.6479750778817" y="481.6" />
              <mxPoint x="2142.6479750778817" y="520.9142857142857" />
              <mxPoint x="2142.6479750778817" y="560.2285714285714" />
            </Array>
          </mxGeometry>
        </mxCell>
        <mxCell id="SUS5FGJaybXMIl3Ot1Ep-32" value="Admin" style="verticalAlign=top;align=left;spacingTop=8;spacingLeft=2;spacingRight=12;shape=cube;size=10;direction=south;fontStyle=4;html=1;rounded=0;shadow=0;comic=0;labelBackgroundColor=none;strokeWidth=1;fontFamily=Verdana;fontSize=12;" vertex="1" parent="v5BvNIy_yjGMQrVk9MFP-1">
          <mxGeometry x="570.0623052959502" y="329.25714285714287" width="373.48909657320877" height="294.8571428571429" as="geometry" />
        </mxCell>
        <mxCell id="SUS5FGJaybXMIl3Ot1Ep-33" value="Admin.js" style="shape=component;align=left;spacingLeft=36;rounded=0;shadow=0;comic=0;labelBackgroundColor=none;strokeWidth=1;fontFamily=Verdana;fontSize=12;html=1;" vertex="1" parent="v5BvNIy_yjGMQrVk9MFP-1">
          <mxGeometry x="609.3769470404985" y="368.57142857142856" width="117.94392523364486" height="58.971428571428575" as="geometry" />
        </mxCell>
        <mxCell id="SUS5FGJaybXMIl3Ot1Ep-34" value="FileA" style="html=1;rounded=0;shadow=0;comic=0;labelBackgroundColor=none;strokeWidth=1;fontFamily=Verdana;fontSize=12;align=center;" vertex="1" parent="v5BvNIy_yjGMQrVk9MFP-1">
          <mxGeometry x="766.6355140186917" y="373.48571428571427" width="108.11526479750779" height="49.142857142857146" as="geometry" />
        </mxCell>
        <mxCell id="SUS5FGJaybXMIl3Ot1Ep-35" style="edgeStyle=orthogonalEdgeStyle;rounded=0;html=1;dashed=1;labelBackgroundColor=none;startArrow=none;startFill=0;startSize=8;endArrow=open;endFill=0;endSize=16;fontFamily=Verdana;fontSize=12;fontColor=default;" edge="1" parent="v5BvNIy_yjGMQrVk9MFP-1" source="SUS5FGJaybXMIl3Ot1Ep-33" target="SUS5FGJaybXMIl3Ot1Ep-34">
          <mxGeometry relative="1" as="geometry" />
        </mxCell>
        <mxCell id="SUS5FGJaybXMIl3Ot1Ep-36" value="FileB" style="html=1;rounded=0;shadow=0;comic=0;labelBackgroundColor=none;strokeWidth=1;fontFamily=Verdana;fontSize=12;align=center;" vertex="1" parent="v5BvNIy_yjGMQrVk9MFP-1">
          <mxGeometry x="766.6355140186917" y="457.0285714285714" width="147.42990654205607" height="49.142857142857146" as="geometry" />
        </mxCell>
        <mxCell id="SUS5FGJaybXMIl3Ot1Ep-37" value="Admin" style="html=1;rounded=0;shadow=0;comic=0;labelBackgroundColor=none;strokeWidth=1;fontFamily=Verdana;fontSize=12;align=center;" vertex="1" parent="v5BvNIy_yjGMQrVk9MFP-1">
          <mxGeometry x="766.6355140186917" y="545.4857142857143" width="147.42990654205607" height="58.971428571428575" as="geometry" />
        </mxCell>
        <mxCell id="SUS5FGJaybXMIl3Ot1Ep-38" style="edgeStyle=orthogonalEdgeStyle;rounded=0;html=1;dashed=1;labelBackgroundColor=none;startArrow=none;startFill=0;startSize=8;endArrow=open;endFill=0;endSize=16;fontFamily=Verdana;fontSize=12;entryX=0;entryY=0.75;entryDx=0;entryDy=0;fontColor=default;" edge="1" parent="v5BvNIy_yjGMQrVk9MFP-1" target="SUS5FGJaybXMIl3Ot1Ep-36">
          <mxGeometry relative="1" as="geometry">
            <mxPoint x="668.3489096573209" y="422.62857142857143" as="sourcePoint" />
            <mxPoint x="776.4641744548287" y="407.8857142857143" as="targetPoint" />
            <Array as="points">
              <mxPoint x="668.3489096573209" y="494.37714285714287" />
            </Array>
          </mxGeometry>
        </mxCell>
        <mxCell id="SUS5FGJaybXMIl3Ot1Ep-39" style="edgeStyle=none;rounded=0;html=1;dashed=1;labelBackgroundColor=none;startArrow=none;startFill=0;startSize=8;endArrow=open;endFill=0;endSize=16;fontFamily=Verdana;fontSize=12;exitX=0.25;exitY=1;exitDx=0;exitDy=0;entryX=-0.008;entryY=0.64;entryDx=0;entryDy=0;entryPerimeter=0;fontColor=default;" edge="1" parent="v5BvNIy_yjGMQrVk9MFP-1" source="SUS5FGJaybXMIl3Ot1Ep-33" target="SUS5FGJaybXMIl3Ot1Ep-37">
          <mxGeometry relative="1" as="geometry">
            <mxPoint x="525.8333333333334" y="615.2685714285715" as="sourcePoint" />
            <mxPoint x="609.3769470404985" y="457.0285714285714" as="targetPoint" />
            <Array as="points">
              <mxPoint x="638.8629283489097" y="506.1714285714286" />
              <mxPoint x="638.8629283489097" y="545.4857142857143" />
              <mxPoint x="638.8629283489097" y="584.8" />
            </Array>
          </mxGeometry>
        </mxCell>
        <mxCell id="SUS5FGJaybXMIl3Ot1Ep-40" value="ChooseTest" style="verticalAlign=top;align=left;spacingTop=8;spacingLeft=2;spacingRight=12;shape=cube;size=10;direction=south;fontStyle=4;html=1;rounded=0;shadow=0;comic=0;labelBackgroundColor=none;strokeWidth=1;fontFamily=Verdana;fontSize=12;" vertex="1" parent="v5BvNIy_yjGMQrVk9MFP-1">
          <mxGeometry x="1705.272585669782" y="987.7714285714286" width="461.9470404984424" height="235.8857142857143" as="geometry" />
        </mxCell>
        <mxCell id="SUS5FGJaybXMIl3Ot1Ep-41" value="ChooseTest.js" style="shape=component;align=left;spacingLeft=36;rounded=0;shadow=0;comic=0;labelBackgroundColor=none;strokeWidth=1;fontFamily=Verdana;fontSize=12;html=1;" vertex="1" parent="v5BvNIy_yjGMQrVk9MFP-1">
          <mxGeometry x="1774.0732087227416" y="1056.5714285714287" width="137.60124610591902" height="58.971428571428575" as="geometry" />
        </mxCell>
        <mxCell id="SUS5FGJaybXMIl3Ot1Ep-42" value="ChooseTest" style="html=1;rounded=0;shadow=0;comic=0;labelBackgroundColor=none;strokeWidth=1;fontFamily=Verdana;fontSize=12;align=center;" vertex="1" parent="v5BvNIy_yjGMQrVk9MFP-1">
          <mxGeometry x="1950.9890965732088" y="1061.4857142857143" width="108.11526479750779" height="49.142857142857146" as="geometry" />
        </mxCell>
        <mxCell id="SUS5FGJaybXMIl3Ot1Ep-43" style="edgeStyle=orthogonalEdgeStyle;rounded=0;html=1;dashed=1;labelBackgroundColor=none;startArrow=none;startFill=0;startSize=8;endArrow=open;endFill=0;endSize=16;fontFamily=Verdana;fontSize=12;fontColor=default;" edge="1" parent="v5BvNIy_yjGMQrVk9MFP-1" source="SUS5FGJaybXMIl3Ot1Ep-41" target="SUS5FGJaybXMIl3Ot1Ep-42">
          <mxGeometry relative="1" as="geometry" />
        </mxCell>
        <mxCell id="SUS5FGJaybXMIl3Ot1Ep-44" value="TestList" style="html=1;rounded=0;shadow=0;comic=0;labelBackgroundColor=none;strokeWidth=1;fontFamily=Verdana;fontSize=12;align=center;" vertex="1" parent="v5BvNIy_yjGMQrVk9MFP-1">
          <mxGeometry x="1950.9890965732088" y="1145.0285714285715" width="147.42990654205607" height="49.142857142857146" as="geometry" />
        </mxCell>
        <mxCell id="SUS5FGJaybXMIl3Ot1Ep-45" style="edgeStyle=orthogonalEdgeStyle;rounded=0;html=1;dashed=1;labelBackgroundColor=none;startArrow=none;startFill=0;startSize=8;endArrow=open;endFill=0;endSize=16;fontFamily=Verdana;fontSize=12;entryX=0;entryY=0.75;entryDx=0;entryDy=0;fontColor=default;" edge="1" parent="v5BvNIy_yjGMQrVk9MFP-1" source="SUS5FGJaybXMIl3Ot1Ep-41" target="SUS5FGJaybXMIl3Ot1Ep-44">
          <mxGeometry relative="1" as="geometry">
            <mxPoint x="1921.5031152647975" y="1095.8857142857144" as="sourcePoint" />
            <mxPoint x="1960.817757009346" y="1095.8857142857144" as="targetPoint" />
            <Array as="points">
              <mxPoint x="1852.702492211838" y="1182.3771428571429" />
            </Array>
          </mxGeometry>
        </mxCell>
        <mxCell id="SUS5FGJaybXMIl3Ot1Ep-46" value="CreateQuizz" style="verticalAlign=top;align=left;spacingTop=8;spacingLeft=2;spacingRight=12;shape=cube;size=10;direction=south;fontStyle=4;html=1;rounded=0;shadow=0;comic=0;labelBackgroundColor=none;strokeWidth=1;fontFamily=Verdana;fontSize=12;" vertex="1" parent="v5BvNIy_yjGMQrVk9MFP-1">
          <mxGeometry x="2594.766355140187" y="319.42857142857144" width="560.2336448598131" height="373.48571428571427" as="geometry" />
        </mxCell>
        <mxCell id="SUS5FGJaybXMIl3Ot1Ep-51" value="CreateQuizz.js" style="shape=component;align=left;spacingLeft=36;rounded=0;shadow=0;comic=0;labelBackgroundColor=none;strokeWidth=1;fontFamily=Verdana;fontSize=12;html=1;" vertex="1" parent="v5BvNIy_yjGMQrVk9MFP-1">
          <mxGeometry x="2663.5669781931465" y="461.9428571428572" width="137.60124610591902" height="58.971428571428575" as="geometry" />
        </mxCell>
        <mxCell id="SUS5FGJaybXMIl3Ot1Ep-52" value="CreateQuizz" style="html=1;rounded=0;shadow=0;comic=0;labelBackgroundColor=none;strokeWidth=1;fontFamily=Verdana;fontSize=12;align=center;" vertex="1" parent="v5BvNIy_yjGMQrVk9MFP-1">
          <mxGeometry x="2968.255451713396" y="339.0857142857143" width="108.11526479750779" height="49.142857142857146" as="geometry" />
        </mxCell>
        <mxCell id="SUS5FGJaybXMIl3Ot1Ep-53" value="Botao" style="html=1;rounded=0;shadow=0;comic=0;labelBackgroundColor=none;strokeWidth=1;fontFamily=Verdana;fontSize=12;align=center;" vertex="1" parent="v5BvNIy_yjGMQrVk9MFP-1">
          <mxGeometry x="2968.255451713396" y="398.0571428571429" width="108.11526479750779" height="49.142857142857146" as="geometry" />
        </mxCell>
        <mxCell id="SUS5FGJaybXMIl3Ot1Ep-54" value="Question" style="html=1;rounded=0;shadow=0;comic=0;labelBackgroundColor=none;strokeWidth=1;fontFamily=Verdana;fontSize=12;align=center;" vertex="1" parent="v5BvNIy_yjGMQrVk9MFP-1">
          <mxGeometry x="2968.255451713396" y="461.9428571428572" width="108.11526479750779" height="49.142857142857146" as="geometry" />
        </mxCell>
        <mxCell id="SUS5FGJaybXMIl3Ot1Ep-55" value="Option" style="html=1;rounded=0;shadow=0;comic=0;labelBackgroundColor=none;strokeWidth=1;fontFamily=Verdana;fontSize=12;align=center;" vertex="1" parent="v5BvNIy_yjGMQrVk9MFP-1">
          <mxGeometry x="2968.255451713396" y="525.8285714285714" width="108.11526479750779" height="49.142857142857146" as="geometry" />
        </mxCell>
        <mxCell id="SUS5FGJaybXMIl3Ot1Ep-56" value="Explanation" style="html=1;rounded=0;shadow=0;comic=0;labelBackgroundColor=none;strokeWidth=1;fontFamily=Verdana;fontSize=12;align=center;" vertex="1" parent="v5BvNIy_yjGMQrVk9MFP-1">
          <mxGeometry x="2624.2523364485983" y="633.9428571428572" width="108.11526479750779" height="49.142857142857146" as="geometry" />
        </mxCell>
        <mxCell id="SUS5FGJaybXMIl3Ot1Ep-57" value="Explanation_Reviewer" style="html=1;rounded=0;shadow=0;comic=0;labelBackgroundColor=none;strokeWidth=1;fontFamily=Verdana;fontSize=12;align=center;" vertex="1" parent="v5BvNIy_yjGMQrVk9MFP-1">
          <mxGeometry x="2761.8535825545173" y="633.9428571428572" width="147.42990654205607" height="49.142857142857146" as="geometry" />
        </mxCell>
        <mxCell id="SUS5FGJaybXMIl3Ot1Ep-58" value="Tags" style="html=1;rounded=0;shadow=0;comic=0;labelBackgroundColor=none;strokeWidth=1;fontFamily=Verdana;fontSize=12;align=center;" vertex="1" parent="v5BvNIy_yjGMQrVk9MFP-1">
          <mxGeometry x="2968.255451713396" y="594.6285714285715" width="108.11526479750779" height="49.142857142857146" as="geometry" />
        </mxCell>
        <mxCell id="SUS5FGJaybXMIl3Ot1Ep-59" style="edgeStyle=orthogonalEdgeStyle;rounded=0;orthogonalLoop=1;jettySize=auto;html=1;entryX=0;entryY=0.5;entryDx=0;entryDy=0;endSize=16;dashed=1;endArrow=open;endFill=0;exitX=0.75;exitY=1;exitDx=0;exitDy=0;labelBackgroundColor=none;fontColor=default;" edge="1" parent="v5BvNIy_yjGMQrVk9MFP-1" source="SUS5FGJaybXMIl3Ot1Ep-51" target="SUS5FGJaybXMIl3Ot1Ep-58">
          <mxGeometry relative="1" as="geometry">
            <mxPoint x="2810.9968847352025" y="525.8285714285714" as="sourcePoint" />
            <mxPoint x="2978.0841121495328" y="560.2285714285714" as="targetPoint" />
            <Array as="points">
              <mxPoint x="2766.767912772586" y="525.8285714285714" />
              <mxPoint x="2850.311526479751" y="525.8285714285714" />
              <mxPoint x="2850.311526479751" y="619.2" />
            </Array>
          </mxGeometry>
        </mxCell>
        <mxCell id="SUS5FGJaybXMIl3Ot1Ep-60" style="edgeStyle=orthogonalEdgeStyle;rounded=0;orthogonalLoop=1;jettySize=auto;html=1;entryX=0.25;entryY=0;entryDx=0;entryDy=0;endSize=16;dashed=1;endArrow=open;endFill=0;exitX=0.5;exitY=1;exitDx=0;exitDy=0;labelBackgroundColor=none;fontColor=default;" edge="1" parent="v5BvNIy_yjGMQrVk9MFP-1" source="SUS5FGJaybXMIl3Ot1Ep-51" target="SUS5FGJaybXMIl3Ot1Ep-57">
          <mxGeometry relative="1" as="geometry">
            <mxPoint x="2776.596573208723" y="530.7428571428571" as="sourcePoint" />
            <mxPoint x="2978.0841121495328" y="629.0285714285715" as="targetPoint" />
            <Array as="points">
              <mxPoint x="2732.367601246106" y="555.3142857142857" />
              <mxPoint x="2799.202492211838" y="555.3142857142857" />
            </Array>
          </mxGeometry>
        </mxCell>
        <mxCell id="SUS5FGJaybXMIl3Ot1Ep-61" style="edgeStyle=orthogonalEdgeStyle;rounded=0;orthogonalLoop=1;jettySize=auto;html=1;entryX=0.5;entryY=0;entryDx=0;entryDy=0;endSize=16;dashed=1;endArrow=open;endFill=0;exitX=0.25;exitY=1;exitDx=0;exitDy=0;labelBackgroundColor=none;fontColor=default;" edge="1" parent="v5BvNIy_yjGMQrVk9MFP-1" source="SUS5FGJaybXMIl3Ot1Ep-51" target="SUS5FGJaybXMIl3Ot1Ep-56">
          <mxGeometry relative="1" as="geometry">
            <mxPoint x="2742.196261682243" y="530.7428571428571" as="sourcePoint" />
            <mxPoint x="2809.0311526479754" y="643.7714285714286" as="targetPoint" />
            <Array as="points">
              <mxPoint x="2678.309968847352" y="520.9142857142857" />
            </Array>
          </mxGeometry>
        </mxCell>
        <mxCell id="SUS5FGJaybXMIl3Ot1Ep-62" value="CreateTest.js" style="shape=component;align=left;spacingLeft=36;rounded=0;shadow=0;comic=0;labelBackgroundColor=none;strokeWidth=1;fontFamily=Verdana;fontSize=12;html=1;" vertex="1" parent="v5BvNIy_yjGMQrVk9MFP-1">
          <mxGeometry x="2412.936137071651" y="1056.5714285714287" width="137.60124610591902" height="58.971428571428575" as="geometry" />
        </mxCell>
        <mxCell id="SUS5FGJaybXMIl3Ot1Ep-63" value="CreateTest" style="html=1;rounded=0;shadow=0;comic=0;labelBackgroundColor=none;strokeWidth=1;fontFamily=Verdana;fontSize=12;align=center;" vertex="1" parent="v5BvNIy_yjGMQrVk9MFP-1">
          <mxGeometry x="2589.8520249221187" y="1061.4857142857143" width="108.11526479750779" height="49.142857142857146" as="geometry" />
        </mxCell>
        <mxCell id="SUS5FGJaybXMIl3Ot1Ep-64" style="edgeStyle=orthogonalEdgeStyle;rounded=0;html=1;dashed=1;labelBackgroundColor=none;startArrow=none;startFill=0;startSize=8;endArrow=open;endFill=0;endSize=16;fontFamily=Verdana;fontSize=12;fontColor=default;" edge="1" parent="v5BvNIy_yjGMQrVk9MFP-1" source="SUS5FGJaybXMIl3Ot1Ep-62" target="SUS5FGJaybXMIl3Ot1Ep-63">
          <mxGeometry relative="1" as="geometry" />
        </mxCell>
        <mxCell id="SUS5FGJaybXMIl3Ot1Ep-65" value="ButtonTag" style="html=1;rounded=0;shadow=0;comic=0;labelBackgroundColor=none;strokeWidth=1;fontFamily=Verdana;fontSize=12;align=center;" vertex="1" parent="v5BvNIy_yjGMQrVk9MFP-1">
          <mxGeometry x="2589.8520249221187" y="1145.0285714285715" width="147.42990654205607" height="49.142857142857146" as="geometry" />
        </mxCell>
        <mxCell id="SUS5FGJaybXMIl3Ot1Ep-66" style="edgeStyle=orthogonalEdgeStyle;rounded=0;html=1;dashed=1;labelBackgroundColor=none;startArrow=none;startFill=0;startSize=8;endArrow=open;endFill=0;endSize=16;fontFamily=Verdana;fontSize=12;entryX=0;entryY=0.75;entryDx=0;entryDy=0;fontColor=default;" edge="1" parent="v5BvNIy_yjGMQrVk9MFP-1" target="SUS5FGJaybXMIl3Ot1Ep-65">
          <mxGeometry relative="1" as="geometry">
            <mxPoint x="2491.565420560748" y="1115.5428571428572" as="sourcePoint" />
            <mxPoint x="2599.6806853582557" y="1095.8857142857144" as="targetPoint" />
            <Array as="points">
              <mxPoint x="2491.565420560748" y="1115.5428571428572" />
              <mxPoint x="2491.565420560748" y="1182.3771428571429" />
            </Array>
          </mxGeometry>
        </mxCell>
        <mxCell id="SUS5FGJaybXMIl3Ot1Ep-67" value="ReviewQuizz" style="verticalAlign=top;align=left;spacingTop=8;spacingLeft=2;spacingRight=12;shape=cube;size=10;direction=south;fontStyle=4;html=1;rounded=0;shadow=0;comic=0;labelBackgroundColor=none;strokeWidth=1;fontFamily=Verdana;fontSize=12;" vertex="1" parent="v5BvNIy_yjGMQrVk9MFP-1">
          <mxGeometry y="776.4571428571429" width="756.8068535825546" height="373.48571428571427" as="geometry" />
        </mxCell>
        <mxCell id="SUS5FGJaybXMIl3Ot1Ep-72" value="component.js" style="shape=component;align=left;spacingLeft=36;rounded=0;shadow=0;comic=0;labelBackgroundColor=none;strokeWidth=1;fontFamily=Verdana;fontSize=12;html=1;" vertex="1" parent="v5BvNIy_yjGMQrVk9MFP-1">
          <mxGeometry x="275.20249221183803" y="918.9714285714285" width="137.60124610591902" height="58.971428571428575" as="geometry" />
        </mxCell>
        <mxCell id="SUS5FGJaybXMIl3Ot1Ep-47" style="edgeStyle=orthogonalEdgeStyle;rounded=0;orthogonalLoop=1;jettySize=auto;html=1;entryX=0;entryY=0.5;entryDx=0;entryDy=0;dashed=1;endArrow=open;endFill=0;endSize=16;labelBackgroundColor=none;fontColor=default;" edge="1" parent="v5BvNIy_yjGMQrVk9MFP-1" source="SUS5FGJaybXMIl3Ot1Ep-51" target="SUS5FGJaybXMIl3Ot1Ep-52">
          <mxGeometry relative="1" as="geometry" />
        </mxCell>
        <mxCell id="SUS5FGJaybXMIl3Ot1Ep-48" style="edgeStyle=orthogonalEdgeStyle;rounded=0;orthogonalLoop=1;jettySize=auto;html=1;entryX=0;entryY=0.5;entryDx=0;entryDy=0;dashed=1;endSize=16;endArrow=open;endFill=0;labelBackgroundColor=none;fontColor=default;" edge="1" parent="v5BvNIy_yjGMQrVk9MFP-1" source="SUS5FGJaybXMIl3Ot1Ep-51" target="SUS5FGJaybXMIl3Ot1Ep-53">
          <mxGeometry relative="1" as="geometry" />
        </mxCell>
        <mxCell id="SUS5FGJaybXMIl3Ot1Ep-49" style="edgeStyle=orthogonalEdgeStyle;rounded=0;orthogonalLoop=1;jettySize=auto;html=1;entryX=0;entryY=0.75;entryDx=0;entryDy=0;endSize=16;dashed=1;endArrow=open;endFill=0;exitX=1;exitY=0.75;exitDx=0;exitDy=0;labelBackgroundColor=none;fontColor=default;" edge="1" parent="v5BvNIy_yjGMQrVk9MFP-1" source="SUS5FGJaybXMIl3Ot1Ep-51" target="SUS5FGJaybXMIl3Ot1Ep-54">
          <mxGeometry relative="1" as="geometry">
            <Array as="points">
              <mxPoint x="2938.7694704049845" y="506.1714285714286" />
              <mxPoint x="2938.7694704049845" y="499.2914285714286" />
            </Array>
          </mxGeometry>
        </mxCell>
        <mxCell id="SUS5FGJaybXMIl3Ot1Ep-73" value="ContainerJustificationSubmit" style="html=1;rounded=0;shadow=0;comic=0;labelBackgroundColor=none;strokeWidth=1;fontFamily=Verdana;fontSize=12;align=center;" vertex="1" parent="v5BvNIy_yjGMQrVk9MFP-1">
          <mxGeometry x="547.9478193146417" y="796.1142857142858" width="181.83021806853583" height="49.142857142857146" as="geometry" />
        </mxCell>
        <mxCell id="SUS5FGJaybXMIl3Ot1Ep-74" value="ButtonsAccRej" style="html=1;rounded=0;shadow=0;comic=0;labelBackgroundColor=none;strokeWidth=1;fontFamily=Verdana;fontSize=12;align=center;" vertex="1" parent="v5BvNIy_yjGMQrVk9MFP-1">
          <mxGeometry x="579.8909657320872" y="855.0857142857143" width="113.02959501557633" height="49.142857142857146" as="geometry" />
        </mxCell>
        <mxCell id="SUS5FGJaybXMIl3Ot1Ep-75" value="BoxContainerState" style="html=1;rounded=0;shadow=0;comic=0;labelBackgroundColor=none;strokeWidth=1;fontFamily=Verdana;fontSize=12;align=center;" vertex="1" parent="v5BvNIy_yjGMQrVk9MFP-1">
          <mxGeometry x="579.8909657320872" y="918.9714285714285" width="132.68691588785046" height="49.142857142857146" as="geometry" />
        </mxCell>
        <mxCell id="SUS5FGJaybXMIl3Ot1Ep-76" value="Question" style="html=1;rounded=0;shadow=0;comic=0;labelBackgroundColor=none;strokeWidth=1;fontFamily=Verdana;fontSize=12;align=center;" vertex="1" parent="v5BvNIy_yjGMQrVk9MFP-1">
          <mxGeometry x="579.8909657320872" y="982.8571428571429" width="108.11526479750779" height="49.142857142857146" as="geometry" />
        </mxCell>
        <mxCell id="SUS5FGJaybXMIl3Ot1Ep-77" value="AnswersContainer" style="html=1;rounded=0;shadow=0;comic=0;labelBackgroundColor=none;strokeWidth=1;fontFamily=Verdana;fontSize=12;align=center;" vertex="1" parent="v5BvNIy_yjGMQrVk9MFP-1">
          <mxGeometry x="380.86059190031153" y="1090.9714285714285" width="140.05841121495328" height="49.142857142857146" as="geometry" />
        </mxCell>
        <mxCell id="SUS5FGJaybXMIl3Ot1Ep-78" value="ChoiceContainerReview" style="html=1;rounded=0;shadow=0;comic=0;labelBackgroundColor=none;strokeWidth=1;fontFamily=Verdana;fontSize=12;align=center;" vertex="1" parent="v5BvNIy_yjGMQrVk9MFP-1">
          <mxGeometry x="579.8909657320872" y="1051.6571428571428" width="162.1728971962617" height="49.142857142857146" as="geometry" />
        </mxCell>
        <mxCell id="SUS5FGJaybXMIl3Ot1Ep-79" style="edgeStyle=orthogonalEdgeStyle;rounded=0;orthogonalLoop=1;jettySize=auto;html=1;entryX=0;entryY=0.5;entryDx=0;entryDy=0;endSize=16;dashed=1;endArrow=open;endFill=0;exitX=0.75;exitY=1;exitDx=0;exitDy=0;labelBackgroundColor=none;fontColor=default;" edge="1" parent="v5BvNIy_yjGMQrVk9MFP-1" source="SUS5FGJaybXMIl3Ot1Ep-72" target="SUS5FGJaybXMIl3Ot1Ep-78">
          <mxGeometry relative="1" as="geometry">
            <mxPoint x="422.6323987538941" y="982.8571428571429" as="sourcePoint" />
            <mxPoint x="589.7196261682243" y="1017.2571428571429" as="targetPoint" />
            <Array as="points">
              <mxPoint x="378.4034267912773" y="982.8571428571429" />
              <mxPoint x="461.9470404984424" y="982.8571428571429" />
              <mxPoint x="461.9470404984424" y="1076.2285714285715" />
            </Array>
          </mxGeometry>
        </mxCell>
        <mxCell id="SUS5FGJaybXMIl3Ot1Ep-80" style="edgeStyle=orthogonalEdgeStyle;rounded=0;orthogonalLoop=1;jettySize=auto;html=1;endSize=16;dashed=1;endArrow=open;endFill=0;exitX=0.5;exitY=1;exitDx=0;exitDy=0;entryX=0.347;entryY=0.029;entryDx=0;entryDy=0;entryPerimeter=0;labelBackgroundColor=none;fontColor=default;" edge="1" parent="v5BvNIy_yjGMQrVk9MFP-1" source="SUS5FGJaybXMIl3Ot1Ep-72" target="SUS5FGJaybXMIl3Ot1Ep-77">
          <mxGeometry relative="1" as="geometry">
            <mxPoint x="388.23208722741435" y="987.7714285714286" as="sourcePoint" />
            <mxPoint x="589.7196261682243" y="1086.057142857143" as="targetPoint" />
            <Array as="points" />
          </mxGeometry>
        </mxCell>
        <mxCell id="SUS5FGJaybXMIl3Ot1Ep-81" value="ReviewQuizz.js" style="shape=component;align=left;spacingLeft=36;rounded=0;shadow=0;comic=0;labelBackgroundColor=none;strokeWidth=1;fontFamily=Verdana;fontSize=12;html=1;" vertex="1" parent="v5BvNIy_yjGMQrVk9MFP-1">
          <mxGeometry x="29.485981308411215" y="914.0571428571428" width="137.60124610591902" height="58.971428571428575" as="geometry" />
        </mxCell>
        <mxCell id="SUS5FGJaybXMIl3Ot1Ep-82" style="edgeStyle=orthogonalEdgeStyle;rounded=0;orthogonalLoop=1;jettySize=auto;html=1;endSize=16;dashed=1;endArrow=open;endFill=0;exitX=0.5;exitY=1;exitDx=0;exitDy=0;entryX=0.347;entryY=0.029;entryDx=0;entryDy=0;entryPerimeter=0;labelBackgroundColor=none;fontColor=default;" edge="1" parent="v5BvNIy_yjGMQrVk9MFP-1" source="SUS5FGJaybXMIl3Ot1Ep-81">
          <mxGeometry relative="1" as="geometry">
            <mxPoint x="49.14330218068536" y="986.7885714285715" as="sourcePoint" />
            <mxPoint x="134.65264797507788" y="1100.8" as="targetPoint" />
            <Array as="points">
              <mxPoint x="98.28660436137072" y="1100.8" />
            </Array>
          </mxGeometry>
        </mxCell>
        <mxCell id="SUS5FGJaybXMIl3Ot1Ep-83" value="ReviewQuizz" style="html=1;rounded=0;shadow=0;comic=0;labelBackgroundColor=none;strokeWidth=1;fontFamily=Verdana;fontSize=12;align=center;" vertex="1" parent="v5BvNIy_yjGMQrVk9MFP-1">
          <mxGeometry x="137.60124610591902" y="1071.3142857142857" width="181.83021806853583" height="49.142857142857146" as="geometry" />
        </mxCell>
        <mxCell id="SUS5FGJaybXMIl3Ot1Ep-84" style="edgeStyle=orthogonalEdgeStyle;rounded=0;orthogonalLoop=1;jettySize=auto;html=1;endSize=16;dashed=1;endArrow=open;endFill=0;entryX=1;entryY=0.5;entryDx=0;entryDy=0;exitX=0.135;exitY=0.483;exitDx=0;exitDy=0;exitPerimeter=0;labelBackgroundColor=none;fontColor=default;" edge="1" parent="v5BvNIy_yjGMQrVk9MFP-1" source="SUS5FGJaybXMIl3Ot1Ep-72" target="SUS5FGJaybXMIl3Ot1Ep-81">
          <mxGeometry relative="1" as="geometry">
            <mxPoint x="250.63084112149534" y="933.7142857142858" as="sourcePoint" />
            <mxPoint x="286.9968847352025" y="1061.4857142857143" as="targetPoint" />
            <Array as="points">
              <mxPoint x="293.87694704049846" y="943.5428571428572" />
            </Array>
          </mxGeometry>
        </mxCell>
        <mxCell id="SUS5FGJaybXMIl3Ot1Ep-85" value="SolveTest" style="verticalAlign=top;align=left;spacingTop=8;spacingLeft=2;spacingRight=12;shape=cube;size=10;direction=south;fontStyle=4;html=1;rounded=0;shadow=0;comic=0;labelBackgroundColor=none;strokeWidth=1;fontFamily=Verdana;fontSize=12;" vertex="1" parent="v5BvNIy_yjGMQrVk9MFP-1">
          <mxGeometry x="1081.152647975078" y="943.5428571428572" width="412.80373831775705" height="280.1142857142857" as="geometry" />
        </mxCell>
        <mxCell id="SUS5FGJaybXMIl3Ot1Ep-86" value="SolveTest.js" style="shape=component;align=left;spacingLeft=36;rounded=0;shadow=0;comic=0;labelBackgroundColor=none;strokeWidth=1;fontFamily=Verdana;fontSize=12;html=1;" vertex="1" parent="v5BvNIy_yjGMQrVk9MFP-1">
          <mxGeometry x="1149.9532710280375" y="973.0285714285715" width="117.94392523364486" height="58.971428571428575" as="geometry" />
        </mxCell>
        <mxCell id="SUS5FGJaybXMIl3Ot1Ep-88" value="Option" style="html=1;rounded=0;shadow=0;comic=0;labelBackgroundColor=none;strokeWidth=1;fontFamily=Verdana;fontSize=12;align=center;" vertex="1" parent="v5BvNIy_yjGMQrVk9MFP-1">
          <mxGeometry x="1307.2118380062307" y="977.9428571428572" width="108.11526479750779" height="49.142857142857146" as="geometry" />
        </mxCell>
        <mxCell id="SUS5FGJaybXMIl3Ot1Ep-50" style="edgeStyle=orthogonalEdgeStyle;rounded=0;orthogonalLoop=1;jettySize=auto;html=1;entryX=0;entryY=0.5;entryDx=0;entryDy=0;endSize=16;dashed=1;endArrow=open;endFill=0;labelBackgroundColor=none;fontColor=default;" edge="1" parent="v5BvNIy_yjGMQrVk9MFP-1" source="SUS5FGJaybXMIl3Ot1Ep-51" target="SUS5FGJaybXMIl3Ot1Ep-55">
          <mxGeometry relative="1" as="geometry">
            <Array as="points">
              <mxPoint x="2840.4828660436137" y="516" />
              <mxPoint x="2840.4828660436137" y="550.4" />
            </Array>
          </mxGeometry>
        </mxCell>
        <mxCell id="SUS5FGJaybXMIl3Ot1Ep-89" style="edgeStyle=orthogonalEdgeStyle;rounded=0;html=1;dashed=1;labelBackgroundColor=none;startArrow=none;startFill=0;startSize=8;endArrow=open;endFill=0;endSize=16;fontFamily=Verdana;fontSize=12;fontColor=default;" edge="1" parent="v5BvNIy_yjGMQrVk9MFP-1" source="SUS5FGJaybXMIl3Ot1Ep-86" target="SUS5FGJaybXMIl3Ot1Ep-88">
          <mxGeometry relative="1" as="geometry" />
        </mxCell>
        <mxCell id="SUS5FGJaybXMIl3Ot1Ep-90" value="Quizz" style="html=1;rounded=0;shadow=0;comic=0;labelBackgroundColor=none;strokeWidth=1;fontFamily=Verdana;fontSize=12;align=center;" vertex="1" parent="v5BvNIy_yjGMQrVk9MFP-1">
          <mxGeometry x="1307.2118380062307" y="1036.9142857142858" width="147.42990654205607" height="49.142857142857146" as="geometry" />
        </mxCell>
        <mxCell id="SUS5FGJaybXMIl3Ot1Ep-91" value="Buttons" style="html=1;rounded=0;shadow=0;comic=0;labelBackgroundColor=none;strokeWidth=1;fontFamily=Verdana;fontSize=12;align=center;" vertex="1" parent="v5BvNIy_yjGMQrVk9MFP-1">
          <mxGeometry x="1307.2118380062307" y="1100.8" width="117.94392523364486" height="49.142857142857146" as="geometry" />
        </mxCell>
        <mxCell id="SUS5FGJaybXMIl3Ot1Ep-92" style="edgeStyle=orthogonalEdgeStyle;rounded=0;html=1;dashed=1;labelBackgroundColor=none;startArrow=none;startFill=0;startSize=8;endArrow=open;endFill=0;endSize=16;fontFamily=Verdana;fontSize=12;entryX=0;entryY=0.5;entryDx=0;entryDy=0;exitX=0.5;exitY=1;exitDx=0;exitDy=0;fontColor=default;" edge="1" parent="v5BvNIy_yjGMQrVk9MFP-1" source="SUS5FGJaybXMIl3Ot1Ep-86" target="SUS5FGJaybXMIl3Ot1Ep-90">
          <mxGeometry relative="1" as="geometry">
            <mxPoint x="1258.0685358255453" y="1012.3428571428572" as="sourcePoint" />
            <mxPoint x="1287.5545171339566" y="1073.7714285714285" as="targetPoint" />
            <Array as="points">
              <mxPoint x="1208.9252336448599" y="1061.4857142857143" />
            </Array>
          </mxGeometry>
        </mxCell>
        <mxCell id="SUS5FGJaybXMIl3Ot1Ep-93" style="edgeStyle=none;rounded=0;html=1;dashed=1;labelBackgroundColor=none;startArrow=none;startFill=0;startSize=8;endArrow=open;endFill=0;endSize=16;fontFamily=Verdana;fontSize=12;entryX=0;entryY=0.25;entryDx=0;entryDy=0;fontColor=default;" edge="1" parent="v5BvNIy_yjGMQrVk9MFP-1" target="SUS5FGJaybXMIl3Ot1Ep-91">
          <mxGeometry relative="1" as="geometry">
            <mxPoint x="1179.4392523364486" y="1032" as="sourcePoint" />
            <mxPoint x="1307.211838006231" y="1150.9257142857143" as="targetPoint" />
            <Array as="points">
              <mxPoint x="1180.3828037383178" y="1099.817142857143" />
              <mxPoint x="1179.4392523364486" y="1113.577142857143" />
            </Array>
          </mxGeometry>
        </mxCell>
        <mxCell id="SUS5FGJaybXMIl3Ot1Ep-94" value="SolveTest" style="html=1;rounded=0;shadow=0;comic=0;labelBackgroundColor=none;strokeWidth=1;fontFamily=Verdana;fontSize=12;align=center;" vertex="1" parent="v5BvNIy_yjGMQrVk9MFP-1">
          <mxGeometry x="1307.2118380062307" y="1164.6857142857143" width="117.94392523364486" height="49.142857142857146" as="geometry" />
        </mxCell>
        <mxCell id="SUS5FGJaybXMIl3Ot1Ep-95" style="edgeStyle=none;rounded=0;html=1;dashed=1;labelBackgroundColor=none;startArrow=none;startFill=0;startSize=8;endArrow=open;endFill=0;endSize=16;fontFamily=Verdana;fontSize=12;fontColor=default;" edge="1" parent="v5BvNIy_yjGMQrVk9MFP-1">
          <mxGeometry relative="1" as="geometry">
            <mxPoint x="1169.6105919003116" y="1032" as="sourcePoint" />
            <mxPoint x="1307.2118380062307" y="1179.4285714285716" as="targetPoint" />
            <Array as="points">
              <mxPoint x="1170.5541433021808" y="1080.16" />
              <mxPoint x="1169.6105919003116" y="1140.1142857142856" />
              <mxPoint x="1169.6105919003116" y="1179.4285714285716" />
            </Array>
          </mxGeometry>
        </mxCell>
        <mxCell id="SUS5FGJaybXMIl3Ot1Ep-96" value="DataFetchFunctions" style="verticalAlign=top;align=left;spacingTop=8;spacingLeft=2;spacingRight=12;shape=cube;size=10;direction=south;fontStyle=4;html=1;rounded=0;shadow=0;comic=0;labelBackgroundColor=none;strokeWidth=1;fontFamily=Verdana;fontSize=12;" vertex="1" parent="v5BvNIy_yjGMQrVk9MFP-1">
          <mxGeometry x="1334.2406542056076" y="1597.142857142857" width="550.4049844236761" height="294.8571428571429" as="geometry" />
        </mxCell>
        <mxCell id="SUS5FGJaybXMIl3Ot1Ep-97" value="DataFetchGet" style="shape=component;align=left;spacingLeft=36;rounded=0;shadow=0;comic=0;labelBackgroundColor=none;strokeWidth=1;fontFamily=Verdana;fontSize=12;html=1;" vertex="1" parent="v5BvNIy_yjGMQrVk9MFP-1">
          <mxGeometry x="1403.041277258567" y="1646.2857142857142" width="137.60124610591902" height="58.971428571428575" as="geometry" />
        </mxCell>
        <mxCell id="SUS5FGJaybXMIl3Ot1Ep-98" value="DataFetchPost" style="shape=component;align=left;spacingLeft=36;rounded=0;shadow=0;comic=0;labelBackgroundColor=none;strokeWidth=1;fontFamily=Verdana;fontSize=12;html=1;" vertex="1" parent="v5BvNIy_yjGMQrVk9MFP-1">
          <mxGeometry x="1619.2718068535826" y="1646.2857142857142" width="137.60124610591902" height="58.971428571428575" as="geometry" />
        </mxCell>
        <mxCell id="SUS5FGJaybXMIl3Ot1Ep-99" value="DataFetchPut" style="shape=component;align=left;spacingLeft=36;rounded=0;shadow=0;comic=0;labelBackgroundColor=none;strokeWidth=1;fontFamily=Verdana;fontSize=12;html=1;" vertex="1" parent="v5BvNIy_yjGMQrVk9MFP-1">
          <mxGeometry x="1398.1269470404984" y="1754.4" width="137.60124610591902" height="58.971428571428575" as="geometry" />
        </mxCell>
        <mxCell id="SUS5FGJaybXMIl3Ot1Ep-101" value="App.js" style="shape=component;align=left;spacingLeft=36;rounded=0;shadow=0;comic=0;labelBackgroundColor=none;strokeWidth=1;fontFamily=Verdana;fontSize=12;html=1;" vertex="1" parent="v5BvNIy_yjGMQrVk9MFP-1">
          <mxGeometry x="1550.471183800623" y="44.22857142857143" width="117.94392523364486" height="58.971428571428575" as="geometry" />
        </mxCell>
        <mxCell id="SUS5FGJaybXMIl3Ot1Ep-68" style="edgeStyle=orthogonalEdgeStyle;rounded=0;orthogonalLoop=1;jettySize=auto;html=1;entryX=0;entryY=0.5;entryDx=0;entryDy=0;dashed=1;endArrow=open;endFill=0;endSize=16;labelBackgroundColor=none;fontColor=default;" edge="1" parent="v5BvNIy_yjGMQrVk9MFP-1" source="SUS5FGJaybXMIl3Ot1Ep-72" target="SUS5FGJaybXMIl3Ot1Ep-73">
          <mxGeometry relative="1" as="geometry" />
        </mxCell>
        <mxCell id="SUS5FGJaybXMIl3Ot1Ep-102" value="App" style="html=1;rounded=0;shadow=0;comic=0;labelBackgroundColor=none;strokeWidth=1;fontFamily=Verdana;fontSize=12;align=center;" vertex="1" parent="v5BvNIy_yjGMQrVk9MFP-1">
          <mxGeometry x="1801.1020249221185" y="54.05714285714286" width="117.94392523364486" height="49.142857142857146" as="geometry" />
        </mxCell>
        <mxCell id="SUS5FGJaybXMIl3Ot1Ep-103" value="Login" style="html=1;rounded=0;shadow=0;comic=0;labelBackgroundColor=none;strokeWidth=1;fontFamily=Verdana;fontSize=12;align=center;" vertex="1" parent="v5BvNIy_yjGMQrVk9MFP-1">
          <mxGeometry x="1791.2733644859813" y="688" width="137.60124610591902" height="54.05714285714286" as="geometry" />
        </mxCell>
        <mxCell id="SUS5FGJaybXMIl3Ot1Ep-104" style="edgeStyle=orthogonalEdgeStyle;rounded=0;html=1;labelBackgroundColor=none;startArrow=none;startFill=0;startSize=8;endArrow=open;endFill=0;endSize=16;fontFamily=Verdana;fontSize=12;dashed=1;fontColor=default;" edge="1" parent="v5BvNIy_yjGMQrVk9MFP-1">
          <mxGeometry relative="1" as="geometry">
            <Array as="points">
              <mxPoint x="1860.5654205607477" y="683.0857142857143" />
            </Array>
            <mxPoint x="1860.0739875389409" y="427.54285714285714" as="sourcePoint" />
            <mxPoint x="1860.5654205607477" y="683.0857142857143" as="targetPoint" />
          </mxGeometry>
        </mxCell>
        <mxCell id="SUS5FGJaybXMIl3Ot1Ep-105" value="&lt;font style=&quot;font-size: 18px;&quot;&gt;Chama&lt;/font&gt;" style="text;html=1;strokeColor=none;fillColor=none;align=center;verticalAlign=middle;whiteSpace=wrap;rounded=0;labelBackgroundColor=none;" vertex="1" parent="v5BvNIy_yjGMQrVk9MFP-1">
          <mxGeometry x="1169.6105919003116" y="717.4857142857143" width="58.97196261682243" height="29.485714285714288" as="geometry" />
        </mxCell>
        <mxCell id="SUS5FGJaybXMIl3Ot1Ep-69" style="edgeStyle=orthogonalEdgeStyle;rounded=0;orthogonalLoop=1;jettySize=auto;html=1;entryX=0;entryY=0.5;entryDx=0;entryDy=0;dashed=1;endSize=16;endArrow=open;endFill=0;labelBackgroundColor=none;fontColor=default;" edge="1" parent="v5BvNIy_yjGMQrVk9MFP-1" source="SUS5FGJaybXMIl3Ot1Ep-72" target="SUS5FGJaybXMIl3Ot1Ep-74">
          <mxGeometry relative="1" as="geometry" />
        </mxCell>
        <mxCell id="SUS5FGJaybXMIl3Ot1Ep-106" style="edgeStyle=orthogonalEdgeStyle;rounded=0;orthogonalLoop=1;jettySize=auto;html=1;entryX=0.299;entryY=1;entryDx=0;entryDy=0;entryPerimeter=0;strokeWidth=3;dashed=1;endArrow=open;endFill=0;endSize=16;labelBackgroundColor=none;fontColor=default;" edge="1" parent="v5BvNIy_yjGMQrVk9MFP-1" source="SUS5FGJaybXMIl3Ot1Ep-32" target="SUS5FGJaybXMIl3Ot1Ep-4">
          <mxGeometry relative="1" as="geometry">
            <mxPoint x="1376.0124610591902" y="1548" as="targetPoint" />
            <Array as="points">
              <mxPoint x="845.2647975077882" y="1381.8971428571429" />
            </Array>
          </mxGeometry>
        </mxCell>
        <mxCell id="SUS5FGJaybXMIl3Ot1Ep-107" value="&lt;font style=&quot;font-size: 18px;&quot;&gt;Chama&lt;/font&gt;" style="text;html=1;strokeColor=none;fillColor=none;align=center;verticalAlign=middle;whiteSpace=wrap;rounded=0;labelBackgroundColor=none;" vertex="1" parent="v5BvNIy_yjGMQrVk9MFP-1">
          <mxGeometry x="864.9221183800623" y="683.0857142857143" width="58.97196261682243" height="29.485714285714288" as="geometry" />
        </mxCell>
        <mxCell id="SUS5FGJaybXMIl3Ot1Ep-70" style="edgeStyle=orthogonalEdgeStyle;rounded=0;orthogonalLoop=1;jettySize=auto;html=1;entryX=0;entryY=0.75;entryDx=0;entryDy=0;endSize=16;dashed=1;endArrow=open;endFill=0;exitX=1;exitY=0.75;exitDx=0;exitDy=0;labelBackgroundColor=none;fontColor=default;" edge="1" parent="v5BvNIy_yjGMQrVk9MFP-1" source="SUS5FGJaybXMIl3Ot1Ep-72" target="SUS5FGJaybXMIl3Ot1Ep-75">
          <mxGeometry relative="1" as="geometry">
            <Array as="points">
              <mxPoint x="412.80373831775705" y="956.32" />
            </Array>
          </mxGeometry>
        </mxCell>
        <mxCell id="SUS5FGJaybXMIl3Ot1Ep-108" style="edgeStyle=orthogonalEdgeStyle;rounded=0;orthogonalLoop=1;jettySize=auto;html=1;exitX=0;exitY=0;exitDx=280;exitDy=205;exitPerimeter=0;entryX=0.003;entryY=0.383;entryDx=0;entryDy=0;entryPerimeter=0;strokeWidth=3;dashed=1;endArrow=open;endFill=0;endSize=16;labelBackgroundColor=none;fontColor=default;" edge="1" parent="v5BvNIy_yjGMQrVk9MFP-1" source="SUS5FGJaybXMIl3Ot1Ep-24" target="SUS5FGJaybXMIl3Ot1Ep-4">
          <mxGeometry relative="1" as="geometry">
            <Array as="points">
              <mxPoint x="2255.677570093458" y="869.8285714285714" />
              <mxPoint x="1631.557632398754" y="869.8285714285714" />
            </Array>
          </mxGeometry>
        </mxCell>
        <mxCell id="SUS5FGJaybXMIl3Ot1Ep-109" value="&lt;font style=&quot;font-size: 18px;&quot;&gt;Chama&lt;/font&gt;" style="text;html=1;strokeColor=none;fillColor=none;align=center;verticalAlign=middle;whiteSpace=wrap;rounded=0;labelBackgroundColor=none;" vertex="1" parent="v5BvNIy_yjGMQrVk9MFP-1">
          <mxGeometry x="2280.2492211838007" y="692.9142857142857" width="58.97196261682243" height="29.485714285714288" as="geometry" />
        </mxCell>
        <mxCell id="SUS5FGJaybXMIl3Ot1Ep-110" value="&lt;font style=&quot;font-size: 18px;&quot;&gt;Chama&lt;/font&gt;" style="text;html=1;strokeColor=none;fillColor=none;align=center;verticalAlign=middle;whiteSpace=wrap;rounded=0;labelBackgroundColor=none;" vertex="1" parent="v5BvNIy_yjGMQrVk9MFP-1">
          <mxGeometry x="2879.797507788162" y="776.4571428571429" width="58.97196261682243" height="29.485714285714288" as="geometry" />
        </mxCell>
        <mxCell id="SUS5FGJaybXMIl3Ot1Ep-111" style="edgeStyle=orthogonalEdgeStyle;rounded=0;orthogonalLoop=1;jettySize=auto;html=1;dashed=1;strokeWidth=3;endArrow=open;endFill=0;endSize=16;labelBackgroundColor=none;fontColor=default;" edge="1" parent="v5BvNIy_yjGMQrVk9MFP-1" source="SUS5FGJaybXMIl3Ot1Ep-67">
          <mxGeometry relative="1" as="geometry">
            <mxPoint x="1358.3208722741433" y="1459.5428571428572" as="targetPoint" />
            <Array as="points">
              <mxPoint x="378.4034267912773" y="1459.5428571428572" />
              <mxPoint x="1359.303738317757" y="1459.5428571428572" />
            </Array>
          </mxGeometry>
        </mxCell>
        <mxCell id="SUS5FGJaybXMIl3Ot1Ep-112" value="&lt;font style=&quot;font-size: 18px;&quot;&gt;Chama&lt;/font&gt;" style="text;html=1;strokeColor=none;fillColor=none;align=center;verticalAlign=middle;whiteSpace=wrap;rounded=0;labelBackgroundColor=none;" vertex="1" parent="v5BvNIy_yjGMQrVk9MFP-1">
          <mxGeometry x="393.1464174454829" y="1194.1714285714286" width="58.97196261682243" height="29.485714285714288" as="geometry" />
        </mxCell>
        <mxCell id="SUS5FGJaybXMIl3Ot1Ep-113" style="edgeStyle=orthogonalEdgeStyle;rounded=0;orthogonalLoop=1;jettySize=auto;html=1;entryX=-0.001;entryY=0.896;entryDx=0;entryDy=0;entryPerimeter=0;exitX=1.011;exitY=0.212;exitDx=0;exitDy=0;exitPerimeter=0;strokeWidth=3;dashed=1;endSize=16;endArrow=open;endFill=0;labelBackgroundColor=none;fontColor=default;" edge="1" parent="v5BvNIy_yjGMQrVk9MFP-1" source="SUS5FGJaybXMIl3Ot1Ep-85" target="SUS5FGJaybXMIl3Ot1Ep-4">
          <mxGeometry relative="1" as="geometry" />
        </mxCell>
        <mxCell id="SUS5FGJaybXMIl3Ot1Ep-114" value="&lt;font style=&quot;font-size: 18px;&quot;&gt;Chama&lt;/font&gt;" style="text;html=1;strokeColor=none;fillColor=none;align=center;verticalAlign=middle;whiteSpace=wrap;rounded=0;labelBackgroundColor=none;" vertex="1" parent="v5BvNIy_yjGMQrVk9MFP-1">
          <mxGeometry x="1334.2406542056076" y="1262.9714285714285" width="58.97196261682243" height="29.485714285714288" as="geometry" />
        </mxCell>
        <mxCell id="SUS5FGJaybXMIl3Ot1Ep-71" style="edgeStyle=orthogonalEdgeStyle;rounded=0;orthogonalLoop=1;jettySize=auto;html=1;entryX=0;entryY=0.5;entryDx=0;entryDy=0;endSize=16;dashed=1;endArrow=open;endFill=0;labelBackgroundColor=none;fontColor=default;" edge="1" parent="v5BvNIy_yjGMQrVk9MFP-1" source="SUS5FGJaybXMIl3Ot1Ep-72" target="SUS5FGJaybXMIl3Ot1Ep-76">
          <mxGeometry relative="1" as="geometry">
            <Array as="points">
              <mxPoint x="452.11838006230533" y="973.0285714285715" />
              <mxPoint x="452.11838006230533" y="1007.4285714285714" />
            </Array>
          </mxGeometry>
        </mxCell>
        <mxCell id="SUS5FGJaybXMIl3Ot1Ep-115" style="edgeStyle=orthogonalEdgeStyle;rounded=0;orthogonalLoop=1;jettySize=auto;html=1;entryX=0.762;entryY=0;entryDx=0;entryDy=0;entryPerimeter=0;dashed=1;endArrow=open;endFill=0;strokeWidth=3;endSize=16;labelBackgroundColor=none;fontColor=default;" edge="1" parent="v5BvNIy_yjGMQrVk9MFP-1" source="SUS5FGJaybXMIl3Ot1Ep-46" target="SUS5FGJaybXMIl3Ot1Ep-4">
          <mxGeometry relative="1" as="geometry">
            <mxPoint x="1801.5934579439254" y="1459.5428571428572" as="targetPoint" />
            <Array as="points">
              <mxPoint x="2860.140186915888" y="1458.56" />
            </Array>
          </mxGeometry>
        </mxCell>
        <mxCell id="SUS5FGJaybXMIl3Ot1Ep-87" value="" style="edgeStyle=orthogonalEdgeStyle;rounded=0;orthogonalLoop=1;jettySize=auto;html=1;labelBackgroundColor=none;fontColor=default;" edge="1" parent="v5BvNIy_yjGMQrVk9MFP-1" source="SUS5FGJaybXMIl3Ot1Ep-88" target="SUS5FGJaybXMIl3Ot1Ep-90">
          <mxGeometry relative="1" as="geometry" />
        </mxCell>
        <mxCell id="SUS5FGJaybXMIl3Ot1Ep-116" style="edgeStyle=orthogonalEdgeStyle;rounded=0;orthogonalLoop=1;jettySize=auto;html=1;entryX=0.3;entryY=-0.001;entryDx=0;entryDy=0;entryPerimeter=0;dashed=1;strokeWidth=3;endArrow=open;endFill=0;endSize=16;labelBackgroundColor=none;fontColor=default;" edge="1" parent="v5BvNIy_yjGMQrVk9MFP-1" source="SUS5FGJaybXMIl3Ot1Ep-1" target="SUS5FGJaybXMIl3Ot1Ep-4">
          <mxGeometry relative="1" as="geometry">
            <Array as="points">
              <mxPoint x="2580.0233644859813" y="1380.9142857142858" />
              <mxPoint x="1801.5934579439254" y="1380.9142857142858" />
            </Array>
          </mxGeometry>
        </mxCell>
        <mxCell id="SUS5FGJaybXMIl3Ot1Ep-100" style="edgeStyle=orthogonalEdgeStyle;rounded=0;orthogonalLoop=1;jettySize=auto;html=1;endSize=16;dashed=1;endArrow=open;endFill=0;labelBackgroundColor=none;fontColor=default;" edge="1" parent="v5BvNIy_yjGMQrVk9MFP-1" source="SUS5FGJaybXMIl3Ot1Ep-101" target="SUS5FGJaybXMIl3Ot1Ep-102">
          <mxGeometry relative="1" as="geometry">
            <Array as="points">
              <mxPoint x="1702.8154205607477" y="78.62857142857143" />
              <mxPoint x="1702.8154205607477" y="78.62857142857143" />
            </Array>
          </mxGeometry>
        </mxCell>
        <mxCell id="SUS5FGJaybXMIl3Ot1Ep-117" style="edgeStyle=orthogonalEdgeStyle;rounded=0;orthogonalLoop=1;jettySize=auto;html=1;entryX=-0.006;entryY=0.091;entryDx=0;entryDy=0;entryPerimeter=0;dashed=1;strokeWidth=3;endArrow=open;endFill=0;endSize=16;labelBackgroundColor=none;fontColor=default;" edge="1" parent="v5BvNIy_yjGMQrVk9MFP-1" source="SUS5FGJaybXMIl3Ot1Ep-40" target="SUS5FGJaybXMIl3Ot1Ep-4">
          <mxGeometry relative="1" as="geometry">
            <Array as="points">
              <mxPoint x="1761.2959501557634" y="1233.4857142857143" />
              <mxPoint x="1761.2959501557634" y="1233.4857142857143" />
            </Array>
          </mxGeometry>
        </mxCell>
        <mxCell id="SUS5FGJaybXMIl3Ot1Ep-118" value="&lt;font style=&quot;font-size: 18px;&quot;&gt;Chama&lt;/font&gt;" style="text;html=1;strokeColor=none;fillColor=none;align=center;verticalAlign=middle;whiteSpace=wrap;rounded=0;labelBackgroundColor=none;" vertex="1" parent="v5BvNIy_yjGMQrVk9MFP-1">
          <mxGeometry x="2491.565420560748" y="1272.8" width="58.97196261682243" height="29.485714285714288" as="geometry" />
        </mxCell>
        <mxCell id="SUS5FGJaybXMIl3Ot1Ep-119" value="&lt;font style=&quot;font-size: 18px;&quot;&gt;Chama&lt;/font&gt;" style="text;html=1;strokeColor=none;fillColor=none;align=center;verticalAlign=middle;whiteSpace=wrap;rounded=0;labelBackgroundColor=none;" vertex="1" parent="v5BvNIy_yjGMQrVk9MFP-1">
          <mxGeometry x="1774.0732087227416" y="1253.142857142857" width="58.97196261682243" height="29.485714285714288" as="geometry" />
        </mxCell>
        <object placeholders="1" c4Name="Front-End" c4Type="ContainerScopeBoundary" c4Application="Container" label="&lt;font style=&quot;font-size: 16px&quot;&gt;&lt;b&gt;&lt;div style=&quot;text-align: left&quot;&gt;%c4Name%&lt;/div&gt;&lt;/b&gt;&lt;/font&gt;&lt;div style=&quot;text-align: left&quot;&gt;[%c4Application%]&lt;/div&gt;" id="xtjgzxmsc5VON6-QySPf-1">
          <mxCell style="rounded=1;fontSize=11;whiteSpace=wrap;html=1;dashed=1;arcSize=20;fillColor=none;strokeColor=#666666;fontColor=#999999;labelBackgroundColor=none;align=left;verticalAlign=bottom;labelBorderColor=none;spacingTop=0;spacing=10;dashPattern=8 4;metaEdit=1;rotatable=0;perimeter=rectanglePerimeter;noLabel=0;labelPadding=0;allowArrows=0;connectable=0;expand=0;recursiveResize=0;editable=1;pointerEvents=0;absoluteArcSize=1;points=[[0.25,0,0],[0.5,0,0],[0.75,0,0],[1,0.25,0],[1,0.5,0],[1,0.75,0],[0.75,1,0],[0.5,1,0],[0.25,1,0],[0,0.75,0],[0,0.5,0],[0,0.25,0]];strokeWidth=1;" vertex="1" parent="v5BvNIy_yjGMQrVk9MFP-1">
            <mxGeometry x="-33" y="-55" width="3231" height="2025" as="geometry" />
          </mxCell>
        </object>
      </root>
    </mxGraphModel>
  </diagram>
</mxfile>
